<?xml version="1.0" encoding="UTF-8"?>
<svg xmlns="http://www.w3.org/2000/svg" xmlns:xlink="http://www.w3.org/1999/xlink" width="200pt" height="93pt" viewBox="0 0 200 93" version="1.1">
<g id="surface1">
<path style=" stroke:none;fill-rule:nonzero;fill:rgb(0%,0%,0%);fill-opacity:1;" d="M 0.332031 46.433594 L 0.332031 92.199219 L 199.332031 92.199219 L 199.332031 0.667969 L 0.332031 0.667969 Z M 188.933594 2.871094 L 197.535156 3.007812 L 197.398438 46.367188 C 197.332031 70.285156 197.132812 89.992188 196.933594 90.328125 C 196.734375 90.59375 152.734375 90.796875 99.199219 90.660156 L 1.734375 90.527344 L 1.667969 46.765625 L 1.535156 3.007812 L 60.601562 2.671875 C 114.734375 2.339844 167.464844 2.40625 188.933594 2.871094 Z M 188.933594 2.871094 "/>
<path style=" stroke:none;fill-rule:nonzero;fill:rgb(0%,0%,0%);fill-opacity:1;" d="M 133 6.011719 C 132.265625 6.28125 131.464844 6.347656 131.132812 6.214844 C 130.867188 6.078125 129.667969 6.746094 128.535156 7.683594 L 126.398438 9.488281 L 125.265625 7.949219 L 124.132812 6.414062 L 121.867188 7.949219 C 119.667969 9.554688 115 15.234375 115.535156 15.765625 C 115.667969 15.96875 116.535156 15.5 117.332031 14.832031 C 119.066406 13.429688 121.332031 13.628906 121.332031 15.097656 C 121.332031 15.765625 120.398438 16.035156 118.535156 16.101562 C 113.464844 16.234375 111.933594 17.035156 110.667969 20.042969 C 110.199219 21.113281 109.535156 22.046875 109.199219 22.046875 C 108.867188 22.046875 108.933594 22.648438 109.332031 23.382812 C 109.734375 24.117188 109.867188 25.121094 109.601562 25.523438 C 109.332031 25.988281 109.066406 28.128906 109 30.332031 C 109 34.007812 109.199219 34.675781 111.132812 36.945312 C 112.332031 38.28125 113.332031 39.683594 113.332031 40.085938 C 113.332031 40.421875 114.066406 40.886719 115 41.15625 C 115.867188 41.355469 116.933594 41.957031 117.398438 42.492188 C 118.398438 43.695312 120.265625 43.695312 121.332031 42.425781 C 121.933594 41.691406 123.535156 41.421875 127.132812 41.421875 C 131.398438 41.421875 132.398438 41.621094 134.332031 43.09375 C 135.933594 44.363281 136.398438 45.164062 136.199219 46.164062 C 135.867188 47.367188 135.734375 47.367188 134.734375 46.5 C 133.332031 45.230469 128.132812 44.027344 127.601562 44.828125 C 127.398438 45.164062 126.667969 45.429688 125.867188 45.429688 C 122.535156 45.429688 118.132812 51.042969 118 55.453125 C 117.933594 57.054688 117.933594 57.054688 117.332031 55.652344 C 116.667969 54.050781 114.332031 52.511719 113.132812 52.980469 C 112.667969 53.113281 111.734375 53.046875 111 52.78125 C 110.066406 52.445312 110.667969 52.179688 113.132812 51.84375 C 115.066406 51.644531 116.867188 51.042969 117.132812 50.574219 C 117.867188 49.371094 117.332031 46.566406 116.132812 45.699219 C 114.867188 44.761719 104.199219 44.964844 103.265625 45.898438 C 102.332031 46.835938 102.398438 66.675781 103.332031 67.746094 C 104.132812 68.816406 115.601562 68.816406 116.601562 67.8125 C 117.601562 66.742188 117.734375 63.738281 116.734375 62.535156 C 116.132812 61.867188 114.800781 61.464844 112.933594 61.464844 C 111.332031 61.464844 110 61.132812 110 60.796875 C 110 60.398438 111.332031 60.128906 113 60.128906 C 115.066406 60.128906 116.132812 59.796875 116.601562 58.992188 C 117.132812 57.992188 117.332031 58.058594 118 59.796875 C 120.867188 67.011719 122.601562 68.480469 128.398438 68.480469 C 134.265625 68.480469 136.800781 65.875 134.535156 62.199219 C 133.933594 61.265625 133.398438 61.066406 132 61.464844 C 127.734375 62.667969 125.265625 60.597656 125.734375 56.1875 C 126.132812 52.78125 127.066406 52.046875 130.800781 52.179688 C 134.332031 52.3125 135.332031 51.777344 135.535156 49.574219 C 135.535156 48.839844 135.867188 48.371094 136.199219 48.570312 C 136.464844 48.773438 136.601562 49.304688 136.398438 49.773438 C 136.265625 50.242188 136.800781 51.308594 137.734375 52.179688 C 138.601562 52.980469 139.332031 54.183594 139.332031 54.785156 C 139.332031 55.386719 139.535156 56.121094 139.800781 56.320312 C 140.601562 57.121094 140.601562 60.398438 139.867188 60.863281 C 138.667969 61.597656 138.535156 67.878906 139.667969 68.816406 C 140.199219 69.28125 140.667969 70.21875 140.667969 70.886719 C 140.667969 71.554688 140.933594 72.222656 141.332031 72.488281 C 141.667969 72.691406 141.800781 73.289062 141.601562 73.824219 C 141.199219 74.761719 143.535156 78.433594 144.132812 77.835938 C 144.265625 77.699219 144.332031 78.703125 144.265625 80.039062 C 144.132812 83.648438 145.867188 85.316406 150 85.449219 C 153 85.515625 153.535156 85.183594 157.265625 82.042969 C 161.265625 78.703125 162.066406 77.164062 160.601562 75.695312 C 159.601562 74.695312 160.464844 73.492188 162.199219 73.492188 C 163.601562 73.558594 163.667969 73.558594 162.398438 74.492188 C 161.667969 75.027344 161.265625 75.628906 161.464844 75.898438 C 162.132812 76.496094 164.535156 74.628906 164.601562 73.558594 C 164.734375 70.617188 165.332031 69.347656 168.199219 66.476562 C 171 63.738281 171.332031 63.070312 171.332031 60.398438 C 171.332031 58.660156 171 57.457031 170.601562 57.457031 C 170.199219 57.457031 170 58.058594 170.199219 58.792969 C 170.398438 59.527344 170.265625 60.128906 169.933594 60.128906 C 169.066406 60.128906 169.933594 53.78125 171.132812 50.910156 C 171.601562 49.707031 172.265625 48.839844 172.535156 49.039062 C 173.132812 49.371094 178.535156 43.960938 180.066406 41.421875 C 181.734375 38.75 182.066406 36.078125 180.734375 36.078125 C 180.066406 36.078125 179.199219 35.675781 178.734375 35.210938 C 178 34.539062 177.867188 34.539062 178.265625 35.210938 C 178.601562 35.878906 177.933594 36.078125 175.734375 36.078125 C 173.265625 36.078125 172.667969 35.878906 172.667969 34.875 C 172.667969 34.074219 172.867188 33.941406 173.199219 34.609375 C 173.800781 35.476562 175.265625 35.410156 178.132812 34.207031 C 180.265625 33.339844 182.734375 33.871094 181.199219 34.808594 C 180.601562 35.210938 180.601562 35.410156 181.132812 35.410156 C 182.464844 35.410156 182.734375 34.207031 181.601562 33.070312 C 180.535156 32.003906 178.398438 32.203125 177.066406 33.472656 C 176 34.472656 174 34.140625 173.535156 32.871094 C 172.933594 31.199219 170.601562 28.726562 169.535156 28.726562 C 169 28.726562 168.734375 28.460938 168.933594 28.128906 C 169.132812 27.792969 168.734375 26.789062 168 25.855469 C 167.265625 24.921875 166.667969 23.851562 166.667969 23.449219 C 166.667969 22.648438 164.066406 18.707031 163.132812 17.972656 C 162.800781 17.773438 162.734375 16.835938 163 15.96875 C 163.601562 13.160156 162.734375 12.761719 155.464844 12.558594 C 151.734375 12.425781 148.667969 12.160156 148.667969 11.824219 C 148.667969 11.558594 149.332031 11.359375 150.199219 11.359375 C 151.601562 11.289062 151.601562 11.289062 150.398438 10.554688 C 149.332031 9.953125 148.933594 10.089844 148.066406 11.089844 C 147 12.425781 144 13.027344 143.332031 12.160156 C 143.132812 11.824219 142 10.957031 140.867188 10.089844 C 139.667969 9.285156 138.667969 8.21875 138.667969 7.816406 C 138.667969 7.347656 138.933594 7.414062 139.332031 8.015625 C 139.734375 8.617188 140 8.683594 140 8.21875 C 140 7.816406 139.667969 7.214844 139.332031 7.015625 C 138.933594 6.746094 138.800781 6.414062 138.933594 6.148438 C 139.332031 5.546875 134.601562 5.410156 133 6.011719 Z M 136.535156 7.414062 C 136.398438 7.816406 134.535156 8.285156 132.398438 8.417969 C 130 8.550781 128.667969 8.417969 129.066406 8.015625 C 129.398438 7.683594 131.199219 7.28125 133 7.148438 C 134.867188 7.015625 136.464844 6.882812 136.535156 6.816406 C 136.667969 6.746094 136.667969 7.015625 136.535156 7.414062 Z M 124.667969 8.015625 C 124.667969 8.351562 124.398438 8.683594 124 8.683594 C 123.667969 8.683594 123.332031 8.351562 123.332031 8.015625 C 123.332031 7.617188 123.667969 7.347656 124 7.347656 C 124.398438 7.347656 124.667969 7.617188 124.667969 8.015625 Z M 124.667969 11.089844 C 124.667969 11.757812 123.800781 12.027344 121.867188 12.027344 L 119.132812 12.027344 L 120.601562 10.757812 C 122.199219 9.351562 124.667969 9.621094 124.667969 11.089844 Z M 134.667969 11.089844 C 134.667969 11.757812 133.667969 12.027344 130.667969 12.027344 C 127.800781 12.027344 126.734375 11.757812 126.867188 11.15625 C 127.066406 9.953125 128.265625 9.621094 131.667969 9.886719 C 133.667969 10.089844 134.667969 10.488281 134.667969 11.089844 Z M 125.800781 11.492188 C 125.601562 12.027344 125.398438 11.824219 125.398438 11.089844 C 125.332031 10.355469 125.535156 9.953125 125.734375 10.222656 C 125.933594 10.421875 126 11.023438 125.800781 11.492188 Z M 136.667969 10.824219 C 136.667969 10.421875 137.132812 10.023438 137.667969 10.023438 C 138.199219 10.023438 138.667969 10.289062 138.667969 10.554688 C 138.667969 10.824219 139.332031 11.089844 140.066406 11.15625 C 140.867188 11.222656 141.800781 11.558594 142.199219 11.960938 C 142.601562 12.359375 142.398438 12.492188 141.601562 12.359375 C 140.867188 12.226562 139.199219 12.09375 137.867188 12.09375 C 135.933594 12.027344 135.332031 11.757812 135.332031 10.824219 C 135.332031 9.886719 135.464844 9.820312 136 10.691406 C 136.398438 11.359375 136.667969 11.425781 136.667969 10.824219 Z M 130.535156 13.964844 C 130.933594 14.03125 131.332031 14.496094 131.332031 15.03125 C 131.332031 15.835938 130.464844 16.035156 127.332031 16.035156 C 124.332031 16.035156 123.332031 15.835938 123.332031 15.097656 C 123.332031 13.761719 124.398438 13.628906 130.535156 13.964844 Z M 137.800781 15.097656 C 137.800781 15.699219 137.066406 16.035156 135.535156 16.035156 C 133.199219 16.035156 132.332031 14.363281 134.535156 13.898438 C 136.332031 13.496094 137.800781 14.03125 137.800781 15.097656 Z M 145.867188 13.964844 C 146.265625 14.03125 146.667969 14.496094 146.667969 15.03125 C 146.667969 16.636719 142.332031 16.367188 142.199219 14.832031 C 142.132812 13.964844 142.535156 13.628906 143.535156 13.761719 C 144.332031 13.828125 145.398438 13.964844 145.867188 13.964844 Z M 155.867188 13.964844 C 156.265625 14.03125 156.667969 14.566406 156.667969 15.164062 C 156.667969 16.167969 156.535156 16.234375 156 15.367188 C 155.601562 14.699219 155.332031 14.632812 155.332031 15.164062 C 155.332031 15.765625 154.199219 16.035156 152 16.035156 C 149.667969 16.035156 148.734375 15.765625 148.867188 15.164062 C 149.132812 13.761719 150.066406 13.628906 155.867188 13.964844 Z M 161.867188 14.898438 C 162.066406 15.765625 161.601562 16.035156 159.734375 16.035156 C 157.867188 16.035156 157.332031 15.765625 157.332031 14.832031 C 157.332031 13.964844 157.464844 13.898438 157.933594 14.566406 C 158.398438 15.300781 158.535156 15.300781 158.867188 14.496094 C 159.398438 13.160156 161.601562 13.496094 161.867188 14.898438 Z M 122.464844 15.5 C 122.265625 16.035156 122.066406 15.835938 122.066406 15.097656 C 122 14.363281 122.199219 13.964844 122.398438 14.230469 C 122.601562 14.429688 122.667969 15.03125 122.464844 15.5 Z M 132.464844 15.5 C 132.265625 16.035156 132.066406 15.835938 132.066406 15.097656 C 132 14.363281 132.199219 13.964844 132.398438 14.230469 C 132.601562 14.429688 132.667969 15.03125 132.464844 15.5 Z M 139.601562 15.03125 C 139.800781 15.566406 139.667969 16.035156 139.332031 16.035156 C 138.933594 16.035156 138.667969 15.566406 138.667969 15.03125 C 138.667969 14.496094 138.800781 14.03125 138.933594 14.03125 C 139.066406 14.03125 139.332031 14.496094 139.601562 15.03125 Z M 141.332031 15.03125 C 141.332031 15.566406 141.199219 16.035156 141.066406 16.035156 C 140.933594 16.035156 140.667969 15.566406 140.398438 15.03125 C 140.199219 14.496094 140.332031 14.03125 140.667969 14.03125 C 141.066406 14.03125 141.332031 14.496094 141.332031 15.03125 Z M 147.800781 15.5 C 147.601562 16.035156 147.398438 15.835938 147.398438 15.097656 C 147.332031 14.363281 147.535156 13.964844 147.734375 14.230469 C 147.933594 14.429688 148 15.03125 147.800781 15.5 Z M 118.535156 17.972656 C 118.933594 18.039062 119.332031 18.574219 119.332031 19.175781 C 119.332031 20.175781 119.199219 20.242188 118.667969 19.375 C 118.332031 18.839844 118 18.707031 118 19.109375 C 118 19.574219 116.667969 20.042969 115 20.175781 C 113.199219 20.308594 112.066406 20.109375 112.199219 19.710938 C 112.535156 18.707031 115.265625 17.503906 116.601562 17.703125 C 117.199219 17.839844 118.066406 17.972656 118.535156 17.972656 Z M 127.199219 17.972656 C 127.601562 18.039062 128 18.507812 128 19.039062 C 128 19.84375 127.132812 20.042969 124 20.042969 C 120.601562 20.042969 120 19.84375 120 18.839844 C 120 17.972656 120.132812 17.90625 120.601562 18.574219 C 121.066406 19.308594 121.199219 19.308594 121.464844 18.574219 C 121.800781 17.773438 122.667969 17.703125 127.199219 17.972656 Z M 134.667969 18.839844 C 134.667969 19.777344 134.132812 20.042969 132.332031 20.042969 C 129.867188 20.042969 128.933594 18.371094 131.199219 17.90625 C 133.667969 17.4375 134.667969 17.703125 134.667969 18.839844 Z M 142.535156 17.972656 C 142.933594 18.039062 143.332031 18.507812 143.332031 19.039062 C 143.332031 20.644531 139 20.378906 138.867188 18.839844 C 138.800781 17.972656 139.199219 17.636719 140.199219 17.773438 C 141 17.839844 142.066406 17.972656 142.535156 17.972656 Z M 152.535156 17.972656 C 152.933594 18.039062 153.332031 18.507812 153.332031 19.039062 C 153.332031 19.84375 152.398438 20.042969 149.199219 20.042969 C 146.199219 20.042969 145.265625 19.84375 146 19.375 C 146.867188 18.773438 146.867188 18.707031 146 18.640625 C 145.199219 18.640625 145.265625 18.507812 146.132812 18.171875 C 147.132812 17.773438 148.398438 17.703125 152.535156 17.972656 Z M 159.800781 18.839844 C 159.667969 20.578125 154 20.578125 154 18.839844 C 154 17.90625 154.132812 17.839844 154.667969 18.707031 C 155.066406 19.308594 155.332031 19.375 155.332031 18.90625 C 155.332031 18.507812 155.867188 18.039062 156.535156 17.90625 C 159 17.4375 159.867188 17.703125 159.800781 18.839844 Z M 129.132812 19.507812 C 128.933594 20.042969 128.734375 19.84375 128.734375 19.109375 C 128.667969 18.371094 128.867188 17.972656 129.066406 18.238281 C 129.265625 18.441406 129.332031 19.039062 129.132812 19.507812 Z M 136.734375 19.375 C 137.132812 19.375 137.199219 19.039062 137 18.707031 C 136.800781 18.304688 136.933594 18.039062 137.265625 18.039062 C 137.667969 18.039062 138 18.507812 138 19.039062 C 138 19.574219 137.398438 20.042969 136.667969 20.042969 C 135.800781 20.042969 135.332031 19.640625 135.398438 18.839844 C 135.398438 18.171875 135.601562 18.039062 135.800781 18.507812 C 135.933594 18.972656 136.398438 19.375 136.734375 19.375 Z M 144.464844 19.507812 C 144.265625 20.042969 144.066406 19.84375 144.066406 19.109375 C 144 18.371094 144.199219 17.972656 144.398438 18.238281 C 144.601562 18.441406 144.667969 19.039062 144.464844 19.507812 Z M 161.667969 18.707031 C 161.464844 19.039062 161.800781 19.375 162.464844 19.441406 C 163.199219 19.441406 163.332031 19.640625 162.800781 19.84375 C 161.601562 20.308594 159.867188 19.507812 160.332031 18.707031 C 160.535156 18.371094 161.066406 18.039062 161.398438 18.039062 C 161.800781 18.039062 161.867188 18.304688 161.667969 18.707031 Z M 115.199219 21.980469 C 115.601562 22.046875 116 22.515625 116 23.050781 C 116 23.785156 115.199219 24.050781 113 24.050781 C 111.332031 24.050781 110 23.917969 110 23.785156 C 110 22.914062 112.132812 21.511719 113.132812 21.714844 C 113.800781 21.847656 114.734375 21.980469 115.199219 21.980469 Z M 123.867188 21.980469 C 124.265625 22.046875 124.667969 22.515625 124.667969 23.050781 C 124.667969 23.851562 123.800781 24.050781 120.667969 24.050781 C 117.265625 24.050781 116.667969 23.851562 116.667969 22.847656 C 116.667969 21.980469 116.800781 21.914062 117.265625 22.582031 C 117.734375 23.316406 117.867188 23.316406 118.199219 22.582031 C 118.398438 21.980469 119.332031 21.648438 120.800781 21.78125 C 122 21.847656 123.398438 21.980469 123.867188 21.980469 Z M 131.332031 22.847656 C 131.332031 23.785156 130.800781 24.050781 129 24.050781 C 127.199219 24.050781 126.667969 23.785156 126.667969 22.847656 C 126.667969 21.980469 127.199219 21.714844 129 21.714844 C 130.800781 21.714844 131.332031 21.980469 131.332031 22.847656 Z M 140.535156 21.980469 C 140.933594 22.046875 141.332031 22.582031 141.332031 23.183594 C 141.332031 24.183594 141.199219 24.253906 140.667969 23.382812 C 140.265625 22.714844 140 22.648438 140 23.183594 C 140 23.785156 138.734375 24.050781 136 24.050781 C 132.601562 24.050781 132 23.851562 132.066406 22.847656 C 132.066406 22.179688 132.265625 22.046875 132.464844 22.515625 C 132.601562 22.984375 133.066406 23.382812 133.398438 23.382812 C 133.800781 23.382812 133.867188 23.050781 133.667969 22.714844 C 133.464844 22.316406 133.601562 22.046875 133.933594 22.046875 C 134.332031 22.046875 134.667969 22.316406 134.667969 22.714844 C 134.667969 23.050781 134.933594 23.382812 135.332031 23.382812 C 135.667969 23.382812 135.800781 22.984375 135.601562 22.515625 C 135.332031 21.714844 136.265625 21.648438 140.535156 21.980469 Z M 149.199219 21.980469 C 149.601562 22.046875 150 22.515625 150 23.050781 C 150 23.851562 149.132812 24.050781 146 24.050781 C 142.601562 24.050781 142 23.851562 142 22.847656 C 142 21.980469 142.132812 21.914062 142.601562 22.582031 C 143.066406 23.316406 143.199219 23.316406 143.464844 22.582031 C 143.800781 21.78125 144.667969 21.714844 149.199219 21.980469 Z M 156.464844 22.847656 C 156.332031 24.585938 150.667969 24.585938 150.667969 22.847656 C 150.667969 21.980469 150.800781 21.914062 151.265625 22.582031 C 151.734375 23.316406 151.867188 23.316406 152.199219 22.582031 C 152.332031 22.046875 153.398438 21.648438 154.535156 21.714844 C 156.066406 21.714844 156.535156 21.980469 156.464844 22.847656 Z M 165.199219 22.914062 C 165.398438 23.785156 164.933594 24.050781 163.199219 24.050781 C 161.535156 24.050781 160.933594 23.71875 160.867188 22.847656 C 160.734375 21.179688 164.867188 21.246094 165.199219 22.914062 Z M 125.800781 23.515625 C 125.601562 24.050781 125.398438 23.851562 125.398438 23.117188 C 125.332031 22.382812 125.535156 21.980469 125.734375 22.246094 C 125.933594 22.449219 126 23.050781 125.800781 23.515625 Z M 158.265625 23.050781 C 158.464844 23.585938 158.332031 24.050781 158 24.050781 C 157.601562 24.050781 157.332031 23.585938 157.332031 23.050781 C 157.332031 22.515625 157.464844 22.046875 157.601562 22.046875 C 157.734375 22.046875 158 22.515625 158.265625 23.050781 Z M 160 23.050781 C 160 23.585938 159.867188 24.050781 159.734375 24.050781 C 159.601562 24.050781 159.332031 23.585938 159.066406 23.050781 C 158.867188 22.515625 159 22.046875 159.332031 22.046875 C 159.734375 22.046875 160 22.515625 160 23.050781 Z M 112.667969 26.859375 C 112.667969 27.59375 112.199219 28.058594 111.464844 28.058594 C 110.800781 28.058594 110.265625 27.527344 110.199219 26.859375 C 110.132812 26.121094 110.535156 25.65625 111.398438 25.65625 C 112.199219 25.65625 112.667969 26.121094 112.667969 26.859375 Z M 120.734375 26.789062 C 121.535156 28.128906 120.867188 28.394531 119.535156 27.324219 C 118.800781 26.722656 118.601562 26.65625 118.933594 27.191406 C 119.265625 27.859375 118.601562 28.058594 116.398438 28.058594 C 113.933594 28.058594 113.332031 27.859375 113.332031 26.859375 C 113.332031 25.988281 113.464844 25.921875 113.933594 26.589844 C 114.398438 27.324219 114.535156 27.324219 114.867188 26.523438 C 115.332031 25.320312 119.933594 25.523438 120.734375 26.789062 Z M 128 26.789062 C 128 27.792969 127.535156 28.058594 125.667969 28.058594 C 123.867188 28.058594 123.332031 27.792969 123.332031 26.859375 C 123.332031 25.988281 123.933594 25.722656 125.667969 25.65625 C 127.535156 25.589844 128 25.789062 128 26.789062 Z M 137.199219 25.988281 C 137.601562 26.054688 138 26.589844 138 27.191406 C 138 28.195312 137.867188 28.261719 137.332031 27.390625 C 136.933594 26.722656 136.667969 26.65625 136.667969 27.191406 C 136.667969 27.660156 136.332031 28.058594 135.933594 28.058594 C 135.601562 28.058594 135.398438 27.792969 135.601562 27.527344 C 135.800781 27.191406 135.535156 26.925781 135 26.925781 C 134.464844 26.925781 134.199219 27.191406 134.398438 27.527344 C 134.601562 27.792969 134.132812 28.058594 133.332031 28.058594 C 132.398438 28.058594 132.066406 27.792969 132.398438 27.191406 C 132.800781 26.523438 132.667969 26.523438 131.933594 27.191406 C 131.464844 27.660156 130.800781 28.058594 130.535156 28.058594 C 129.667969 28.058594 130.265625 26.457031 131.199219 26.054688 C 132 25.722656 133.867188 25.722656 137.199219 25.988281 Z M 145.867188 25.988281 C 146.265625 26.054688 146.667969 26.523438 146.667969 27.058594 C 146.667969 27.859375 145.800781 28.058594 142.667969 28.058594 C 139.265625 28.058594 138.667969 27.859375 138.667969 26.859375 C 138.667969 25.988281 138.800781 25.921875 139.265625 26.589844 C 139.734375 27.324219 139.867188 27.324219 140.199219 26.589844 C 140.398438 25.988281 141.332031 25.65625 142.800781 25.789062 C 144 25.855469 145.398438 25.988281 145.867188 25.988281 Z M 153.332031 26.859375 C 153.332031 27.859375 152.734375 28.058594 150.332031 28.058594 C 147.933594 28.058594 147.332031 27.859375 147.332031 26.859375 C 147.332031 25.921875 147.464844 25.855469 148 26.722656 C 148.535156 27.59375 148.667969 27.59375 148.667969 26.65625 C 148.667969 25.855469 149.265625 25.589844 151 25.65625 C 152.734375 25.722656 153.332031 25.988281 153.332031 26.859375 Z M 161.867188 26.925781 C 162 27.527344 161.734375 28.058594 161.332031 28.058594 C 160.933594 28.058594 160.734375 27.792969 160.933594 27.527344 C 161.132812 27.191406 160.867188 26.925781 160.332031 26.925781 C 159.800781 26.925781 159.535156 27.191406 159.734375 27.527344 C 159.933594 27.792969 159.535156 28.058594 158.867188 28.058594 C 158.132812 28.058594 157.601562 27.527344 157.535156 26.859375 C 157.398438 25.1875 161.535156 25.253906 161.867188 26.925781 Z M 167.332031 26.722656 C 168 27.925781 167.867188 28.058594 166 28.058594 C 163.800781 28.058594 163.132812 26.390625 165.199219 25.855469 C 165.800781 25.65625 166.398438 25.523438 166.464844 25.453125 C 166.535156 25.453125 166.933594 25.988281 167.332031 26.722656 Z M 122.667969 27.058594 C 122.667969 27.59375 122.535156 28.058594 122.398438 28.058594 C 122.265625 28.058594 122 27.59375 121.734375 27.058594 C 121.535156 26.523438 121.667969 26.054688 122 26.054688 C 122.398438 26.054688 122.667969 26.523438 122.667969 27.058594 Z M 129.132812 27.527344 C 128.933594 28.058594 128.734375 27.859375 128.734375 27.125 C 128.667969 26.390625 128.867188 25.988281 129.066406 26.257812 C 129.265625 26.457031 129.332031 27.058594 129.132812 27.527344 Z M 155.398438 27.390625 C 155.800781 27.390625 155.867188 27.058594 155.667969 26.722656 C 155.464844 26.324219 155.601562 26.054688 155.933594 26.054688 C 156.332031 26.054688 156.667969 26.523438 156.667969 27.058594 C 156.667969 27.59375 156.066406 28.058594 155.332031 28.058594 C 154.464844 28.058594 154 27.660156 154.066406 26.859375 C 154.066406 26.191406 154.265625 26.054688 154.464844 26.523438 C 154.601562 26.992188 155.066406 27.390625 155.398438 27.390625 Z M 163.132812 27.527344 C 162.933594 28.058594 162.734375 27.859375 162.734375 27.125 C 162.667969 26.390625 162.867188 25.988281 163.066406 26.257812 C 163.265625 26.457031 163.332031 27.058594 163.132812 27.527344 Z M 115.800781 30.867188 C 115.734375 31.867188 115.066406 32.070312 112.535156 32.070312 C 109.933594 32.070312 109.464844 31.867188 109.800781 31 C 110.132812 30.132812 110.265625 30.132812 110.734375 30.867188 C 111.199219 31.535156 111.332031 31.46875 111.332031 30.664062 C 111.332031 29.863281 111.933594 29.597656 113.601562 29.664062 C 115.332031 29.730469 115.867188 29.996094 115.800781 30.867188 Z M 119.332031 30.734375 C 119.332031 31.601562 118.867188 32.070312 118 32.070312 C 117.132812 32.070312 116.667969 31.667969 116.734375 30.867188 C 116.734375 30.199219 116.933594 30.066406 117.132812 30.53125 C 117.464844 31.46875 118.734375 31.734375 118.601562 30.867188 C 118.464844 30.066406 118.667969 29.398438 119 29.398438 C 119.199219 29.398438 119.332031 29.996094 119.332031 30.734375 Z M 124.667969 30.800781 C 124.667969 32.269531 124 32.402344 122.734375 31.199219 C 122 30.53125 121.867188 30.53125 122.265625 31.199219 C 122.601562 31.800781 122.332031 32.070312 121.535156 32.070312 C 120.800781 32.070312 120.265625 31.535156 120.199219 30.867188 C 120.132812 29.996094 120.667969 29.730469 122.398438 29.664062 C 124.199219 29.597656 124.667969 29.796875 124.667969 30.800781 Z M 125.800781 31.535156 C 125.601562 32.003906 125.464844 31.667969 125.464844 30.734375 C 125.464844 29.796875 125.601562 29.464844 125.800781 29.863281 C 125.933594 30.332031 125.933594 31.132812 125.800781 31.535156 Z M 134.667969 30.867188 C 134.667969 31.667969 134.132812 32.070312 133.265625 32.070312 C 132.398438 32.070312 132.066406 31.800781 132.398438 31.199219 C 132.800781 30.53125 132.667969 30.53125 131.933594 31.199219 C 131.464844 31.667969 130.066406 32.070312 128.867188 32.070312 C 127.464844 32.070312 126.734375 31.734375 126.867188 31.199219 C 127.066406 30.066406 128.132812 29.730469 131.667969 29.730469 C 134.066406 29.730469 134.667969 29.929688 134.667969 30.867188 Z M 142.199219 29.996094 C 142.535156 30.066406 142.535156 30.332031 142.332031 30.734375 C 142.132812 31.066406 142.265625 31.402344 142.734375 31.402344 C 143.199219 31.402344 143.332031 31.601562 143.132812 31.800781 C 142.867188 32.070312 142.199219 31.867188 141.535156 31.335938 C 140.800781 30.734375 140.601562 30.664062 140.933594 31.199219 C 141.265625 31.800781 140.933594 32.070312 140 32.070312 C 139.199219 32.070312 138.734375 31.800781 138.933594 31.535156 C 139.132812 31.199219 138.867188 30.933594 138.332031 30.933594 C 137.800781 30.933594 137.535156 31.199219 137.734375 31.535156 C 137.933594 31.800781 137.464844 32.070312 136.734375 32.070312 C 135.867188 32.070312 135.332031 31.667969 135.332031 30.867188 C 135.332031 29.996094 135.464844 29.929688 135.933594 30.597656 C 136.398438 31.335938 136.535156 31.335938 136.867188 30.597656 C 137.132812 29.730469 138.398438 29.597656 142.199219 29.996094 Z M 144.667969 30.867188 C 144.667969 32.070312 144.535156 32.203125 144.066406 31.402344 C 143.667969 30.867188 143.601562 30.199219 143.734375 29.929688 C 144.332031 28.996094 144.667969 29.328125 144.667969 30.867188 Z M 150 30.800781 C 150 31.800781 149.535156 32.070312 147.667969 32.070312 C 145.867188 32.070312 145.332031 31.800781 145.332031 30.867188 C 145.332031 29.996094 145.933594 29.730469 147.667969 29.664062 C 149.535156 29.597656 150 29.796875 150 30.800781 Z M 158.667969 30.664062 C 159.066406 31.402344 159.265625 31.335938 159.535156 30.332031 C 159.800781 29.261719 159.867188 29.261719 159.933594 30.53125 C 160 31.667969 159.601562 32.070312 158.601562 32.070312 C 157.867188 32.070312 157.398438 31.800781 157.601562 31.535156 C 157.800781 31.199219 157.535156 30.933594 157 30.933594 C 156.464844 30.933594 156.199219 31.199219 156.398438 31.535156 C 156.601562 31.800781 156.132812 32.070312 155.332031 32.070312 C 154.398438 32.070312 154.066406 31.800781 154.398438 31.199219 C 154.800781 30.53125 154.667969 30.53125 153.933594 31.199219 C 152.601562 32.46875 150.667969 32.269531 150.734375 30.867188 C 150.734375 30.199219 150.933594 30.066406 151.132812 30.53125 C 151.265625 31 151.734375 31.402344 152.066406 31.402344 C 152.464844 31.402344 152.601562 31.132812 152.332031 30.800781 C 152.132812 30.464844 152.535156 30.066406 153.132812 29.929688 C 155.535156 29.464844 158.066406 29.796875 158.667969 30.664062 Z M 167.867188 29.996094 C 168.265625 30.066406 168.667969 30.53125 168.667969 31.066406 C 168.667969 32.335938 164.667969 32.46875 163.398438 31.199219 C 162.667969 30.53125 162.535156 30.53125 162.933594 31.199219 C 163.265625 31.800781 162.933594 32.070312 162.066406 32.070312 C 161.199219 32.070312 160.667969 31.667969 160.667969 30.867188 C 160.667969 29.996094 160.800781 29.929688 161.265625 30.597656 C 161.734375 31.335938 161.867188 31.335938 162.199219 30.597656 C 162.398438 29.996094 163.332031 29.664062 164.800781 29.796875 C 166 29.863281 167.398438 29.996094 167.867188 29.996094 Z M 170.667969 31.066406 C 171 30.867188 171.398438 31 171.667969 31.402344 C 171.867188 31.734375 171.464844 32.070312 170.734375 32.070312 C 169.800781 32.070312 169.332031 31.667969 169.398438 30.867188 C 169.398438 30.199219 169.601562 30.066406 169.800781 30.597656 C 169.933594 31 170.398438 31.265625 170.667969 31.066406 Z M 112.667969 34.808594 C 112.667969 36.34375 112.265625 36.410156 110.933594 35.140625 C 109.734375 33.871094 109.734375 33.738281 111.332031 33.605469 C 112.265625 33.539062 112.667969 33.871094 112.667969 34.808594 Z M 114.734375 35.410156 C 115.132812 35.410156 115.265625 35.140625 115 34.808594 C 114.800781 34.472656 114.933594 34.007812 115.332031 33.738281 C 115.667969 33.539062 116 33.941406 116 34.675781 C 116 35.609375 115.601562 36.078125 114.667969 36.078125 C 113.734375 36.078125 113.332031 35.675781 113.398438 34.539062 C 113.464844 33.472656 113.535156 33.339844 113.800781 34.207031 C 113.933594 34.875 114.398438 35.410156 114.734375 35.410156 Z M 121.199219 34.941406 C 121.332031 35.542969 121.066406 36.078125 120.667969 36.078125 C 120.265625 36.078125 120.066406 35.808594 120.265625 35.542969 C 120.464844 35.210938 120.199219 34.941406 119.667969 34.941406 C 119.132812 34.941406 118.867188 35.210938 119.066406 35.542969 C 119.265625 35.808594 118.867188 36.078125 118.199219 36.078125 C 117.464844 36.078125 116.933594 35.542969 116.867188 34.875 C 116.734375 33.203125 120.867188 33.273438 121.199219 34.941406 Z M 122.464844 35.542969 C 122.265625 36.011719 122.132812 35.675781 122.132812 34.742188 C 122.132812 33.804688 122.265625 33.472656 122.464844 33.871094 C 122.601562 34.339844 122.601562 35.140625 122.464844 35.542969 Z M 130.535156 34.007812 C 130.933594 34.007812 131.332031 34.539062 131.332031 35.074219 C 131.332031 35.878906 130.464844 36.078125 127.332031 36.078125 C 123.933594 36.078125 123.332031 35.878906 123.332031 34.875 C 123.332031 34.007812 123.464844 33.941406 123.933594 34.609375 C 124.398438 35.34375 124.535156 35.34375 124.867188 34.539062 C 125.199219 33.671875 126 33.605469 130.535156 34.007812 Z M 133.265625 34.675781 C 133.332031 33.871094 133.933594 33.605469 135.601562 33.671875 C 137.332031 33.738281 137.867188 34.007812 137.800781 34.875 C 137.734375 35.542969 137.199219 36.078125 136.464844 36.078125 C 135.800781 36.078125 135.398438 35.808594 135.601562 35.542969 C 135.800781 35.210938 135.535156 34.941406 135 34.941406 C 134.464844 34.941406 134.199219 35.210938 134.398438 35.542969 C 134.601562 35.808594 134.132812 36.078125 133.398438 36.078125 C 132.398438 36.078125 132 35.675781 132.066406 34.539062 C 132.066406 33.136719 132.132812 33.136719 132.667969 34.40625 C 133.132812 35.410156 133.265625 35.476562 133.265625 34.675781 Z M 141.332031 34.742188 C 141.332031 35.609375 140.867188 36.078125 140 36.078125 C 139.132812 36.078125 138.667969 35.675781 138.734375 34.875 C 138.734375 34.207031 138.933594 34.074219 139.132812 34.539062 C 139.464844 35.476562 140.734375 35.742188 140.601562 34.875 C 140.464844 34.074219 140.667969 33.40625 141 33.40625 C 141.199219 33.40625 141.332031 34.007812 141.332031 34.742188 Z M 146.667969 34.808594 C 146.667969 36.277344 146 36.410156 144.734375 35.210938 C 144 34.539062 143.867188 34.539062 144.265625 35.210938 C 144.601562 35.808594 144.332031 36.078125 143.535156 36.078125 C 142.800781 36.078125 142.265625 35.542969 142.199219 34.875 C 142.132812 34.007812 142.667969 33.738281 144.398438 33.671875 C 146.199219 33.605469 146.667969 33.804688 146.667969 34.808594 Z M 148.734375 35.410156 C 149.132812 35.410156 149.199219 35.074219 149 34.742188 C 148.535156 34.007812 148.867188 33.941406 153.535156 33.804688 C 156.132812 33.738281 156.667969 33.941406 156.667969 34.875 C 156.667969 35.675781 156.132812 36.078125 155.265625 36.078125 C 154.535156 36.078125 154.066406 35.808594 154.265625 35.542969 C 154.464844 35.210938 154.199219 34.941406 153.667969 34.941406 C 153.132812 34.941406 152.867188 35.210938 153.066406 35.542969 C 153.265625 35.808594 152.066406 36.078125 150.398438 36.078125 C 147.667969 36.078125 147.332031 35.945312 147.398438 34.539062 C 147.464844 33.472656 147.535156 33.339844 147.800781 34.207031 C 147.933594 34.875 148.398438 35.410156 148.734375 35.410156 Z M 164.535156 34.007812 C 165.535156 34.074219 165.601562 36.078125 164.601562 36.078125 C 164.265625 36.078125 164.066406 35.808594 164.265625 35.542969 C 164.464844 35.210938 164.199219 34.941406 163.667969 34.941406 C 163.132812 34.941406 162.867188 35.210938 163.066406 35.542969 C 163.265625 35.808594 162.800781 36.078125 162 36.078125 C 161.199219 36.078125 160.734375 35.808594 160.933594 35.542969 C 161.132812 35.210938 160.867188 34.941406 160.332031 34.941406 C 159.800781 34.941406 159.535156 35.210938 159.734375 35.542969 C 159.933594 35.808594 159.464844 36.078125 158.734375 36.078125 C 157.867188 36.078125 157.332031 35.675781 157.332031 34.875 C 157.332031 34.007812 157.464844 33.941406 157.933594 34.609375 C 158.398438 35.34375 158.535156 35.34375 158.867188 34.609375 C 159.066406 34.007812 160 33.671875 161.464844 33.804688 C 162.667969 33.871094 164.066406 34.007812 164.535156 34.007812 Z M 166.464844 35.542969 C 166.265625 36.011719 166.132812 35.675781 166.132812 34.742188 C 166.132812 33.804688 166.265625 33.472656 166.464844 33.871094 C 166.601562 34.339844 166.601562 35.140625 166.464844 35.542969 Z M 172 34.875 C 172 35.675781 171.535156 36.078125 170.601562 36.078125 C 169.734375 36.078125 169.398438 35.808594 169.734375 35.210938 C 170.132812 34.539062 170 34.539062 169.265625 35.210938 C 168 36.410156 167.332031 36.277344 167.332031 34.875 C 167.332031 33.871094 167.867188 33.605469 169.667969 33.605469 C 171.464844 33.605469 172 33.871094 172 34.875 Z M 119.332031 39.085938 C 119.332031 40.21875 119.199219 40.21875 118.667969 39.417969 C 118.265625 38.75 118 38.683594 118 39.21875 C 118 39.683594 117.667969 40.085938 117.265625 40.085938 C 116.933594 40.085938 116.800781 39.683594 117.066406 39.21875 C 117.464844 38.617188 117.398438 38.617188 116.535156 39.21875 C 115.734375 39.953125 115.332031 39.886719 114.464844 38.882812 C 113.464844 37.816406 113.601562 37.746094 116.398438 37.746094 C 118.867188 37.746094 119.332031 37.949219 119.332031 39.085938 Z M 128 38.882812 C 128 39.820312 127.464844 40.085938 125.800781 40.085938 C 124.601562 40.085938 123.199219 39.683594 122.734375 39.21875 C 122 38.550781 121.867188 38.550781 122.265625 39.21875 C 122.601562 39.820312 122.265625 40.085938 121.398438 40.085938 C 120.535156 40.085938 120 39.683594 120 38.882812 C 120 38.015625 120.132812 37.949219 120.601562 38.617188 C 121.066406 39.351562 121.199219 39.351562 121.535156 38.617188 C 121.734375 37.949219 122.867188 37.679688 124.933594 37.679688 C 127.398438 37.746094 128 37.949219 128 38.882812 Z M 129.132812 39.550781 C 128.933594 40.019531 128.800781 39.683594 128.800781 38.75 C 128.800781 37.816406 128.933594 37.480469 129.132812 37.882812 C 129.265625 38.347656 129.265625 39.152344 129.132812 39.550781 Z M 131.667969 38.75 C 131.667969 39.21875 131.265625 39.753906 130.867188 39.886719 C 130.332031 40.085938 130 39.617188 130 38.75 C 130 37.882812 130.332031 37.414062 130.867188 37.546875 C 131.265625 37.746094 131.667969 38.28125 131.667969 38.75 Z M 134.667969 38.816406 C 134.667969 39.617188 134.199219 40.085938 133.464844 40.085938 C 132.800781 40.085938 132.265625 39.617188 132.265625 38.882812 C 132.265625 38.214844 132.800781 37.613281 133.464844 37.613281 C 134.265625 37.546875 134.667969 37.949219 134.667969 38.816406 Z M 138 38.75 C 138 39.617188 137.535156 40.085938 136.667969 40.085938 C 135.800781 40.085938 135.332031 39.683594 135.398438 38.882812 C 135.398438 38.214844 135.601562 38.082031 135.800781 38.550781 C 136.132812 39.484375 137.398438 39.753906 137.265625 38.882812 C 137.132812 38.082031 137.332031 37.414062 137.667969 37.414062 C 137.867188 37.414062 138 38.015625 138 38.75 Z M 143.332031 38.75 C 143.332031 40.351562 139 40.554688 138.867188 38.882812 C 138.800781 38.015625 139.332031 37.746094 141.066406 37.679688 C 142.800781 37.613281 143.332031 37.882812 143.332031 38.75 Z M 144.464844 39.550781 C 144.265625 40.019531 144.132812 39.683594 144.132812 38.75 C 144.132812 37.816406 144.265625 37.480469 144.464844 37.882812 C 144.601562 38.347656 144.601562 39.152344 144.464844 39.550781 Z M 153.332031 38.882812 C 153.332031 39.886719 152.667969 40.085938 149.332031 40.085938 C 145.535156 40.085938 145.398438 40.019531 146.398438 38.882812 C 147.800781 37.148438 153.332031 37.214844 153.332031 38.882812 Z M 155.265625 38.617188 C 155.332031 37.746094 155.867188 37.546875 158.066406 37.746094 C 159.601562 37.882812 161.066406 38.347656 161.398438 38.816406 C 162.199219 40.152344 161.535156 40.421875 160.199219 39.351562 C 159.464844 38.75 159.265625 38.683594 159.601562 39.21875 C 159.933594 39.820312 159.601562 40.085938 158.667969 40.085938 C 157.867188 40.085938 157.398438 39.820312 157.601562 39.550781 C 157.800781 39.21875 157.535156 38.949219 157 38.949219 C 156.464844 38.949219 156.199219 39.21875 156.398438 39.550781 C 156.601562 39.820312 156.132812 40.085938 155.398438 40.085938 C 154.398438 40.085938 154 39.683594 154.066406 38.550781 C 154.066406 37.148438 154.132812 37.148438 154.667969 38.414062 C 155.132812 39.484375 155.265625 39.550781 155.265625 38.617188 Z M 163.332031 38.882812 C 163.332031 40.085938 163.199219 40.21875 162.734375 39.417969 C 162.332031 38.882812 162.265625 38.214844 162.398438 37.949219 C 163 37.011719 163.332031 37.347656 163.332031 38.882812 Z M 165.800781 38.484375 C 166.132812 39.484375 166.265625 39.484375 166.800781 38.484375 C 167.601562 37.011719 168.667969 37.148438 168.667969 38.75 C 168.667969 39.820312 168.199219 40.085938 166.332031 40.085938 C 164.464844 40.085938 164 39.820312 164 38.75 C 164 37.148438 165.199219 36.945312 165.800781 38.484375 Z M 170.734375 39.417969 C 171.132812 39.417969 171.199219 39.085938 171 38.75 C 170.535156 38.015625 170.734375 38.015625 175.535156 37.746094 C 178.199219 37.679688 178.667969 37.816406 178.667969 38.882812 C 178.667969 39.683594 178.199219 40.085938 177.265625 40.085938 C 176.535156 40.085938 176.066406 39.820312 176.265625 39.550781 C 176.464844 39.21875 176.199219 38.949219 175.667969 38.949219 C 175.132812 38.949219 174.867188 39.21875 175.066406 39.550781 C 175.265625 39.820312 174.066406 40.085938 172.398438 40.085938 C 169.667969 40.085938 169.332031 39.953125 169.398438 38.550781 C 169.464844 37.480469 169.535156 37.347656 169.800781 38.214844 C 169.933594 38.882812 170.398438 39.417969 170.734375 39.417969 Z M 180.667969 38.347656 C 180.667969 38.882812 180.398438 39.550781 180 39.753906 C 179.667969 39.953125 179.332031 39.550781 179.332031 38.816406 C 179.332031 38.015625 179.667969 37.414062 180 37.414062 C 180.398438 37.414062 180.667969 37.816406 180.667969 38.347656 Z M 120.601562 42.15625 C 119.398438 42.890625 118 42.890625 118 42.15625 C 118 41.824219 118.800781 41.554688 119.734375 41.554688 C 120.933594 41.554688 121.199219 41.757812 120.601562 42.15625 Z M 141.332031 42.890625 C 141.332031 43.695312 140.867188 44.09375 139.933594 44.09375 C 139.199219 44.09375 138.734375 43.828125 138.933594 43.558594 C 139.132812 43.226562 138.867188 42.960938 138.332031 42.960938 C 137.800781 42.960938 137.535156 43.226562 137.734375 43.558594 C 137.933594 43.828125 137.734375 44.09375 137.398438 44.09375 C 137 44.09375 136.667969 43.828125 136.667969 43.558594 C 136.667969 43.226562 135.867188 42.691406 134.867188 42.359375 C 133.265625 41.757812 133.601562 41.621094 137.199219 41.691406 C 140.734375 41.691406 141.332031 41.890625 141.332031 42.890625 Z M 150 42.890625 C 150 43.828125 149.464844 44.09375 147.667969 44.09375 C 146.265625 44.09375 145.132812 43.695312 144.667969 42.890625 C 143.933594 41.824219 143.933594 41.824219 144.265625 42.890625 C 144.535156 43.761719 144.265625 44.09375 143.332031 44.09375 C 142.132812 44.09375 142.066406 44.027344 143.066406 42.890625 C 144.464844 41.15625 150 41.222656 150 42.890625 Z M 151.933594 42.558594 C 152 41.089844 153.667969 41.421875 153.667969 42.824219 C 153.667969 43.359375 153 43.828125 152.199219 43.960938 C 151 44.160156 150.667969 43.894531 150.734375 42.625 C 150.734375 41.15625 150.800781 41.15625 151.332031 42.425781 C 151.867188 43.628906 151.933594 43.628906 151.933594 42.558594 Z M 158 42.558594 C 158 43.027344 158.332031 43.425781 158.734375 43.425781 C 159.066406 43.425781 159.265625 43.160156 159 42.824219 C 158.800781 42.492188 158.933594 42.023438 159.332031 41.757812 C 159.667969 41.554688 160 41.957031 160 42.691406 C 160 43.628906 159.601562 44.09375 158.667969 44.09375 C 157.933594 44.09375 157.332031 43.761719 157.332031 43.425781 C 157.332031 43.027344 157 42.757812 156.601562 42.757812 C 156.265625 42.757812 156.132812 43.027344 156.332031 43.425781 C 156.535156 43.761719 156.199219 44.09375 155.535156 44.09375 C 154.800781 44.09375 154.265625 43.628906 154.265625 42.890625 C 154.265625 42.023438 154.800781 41.691406 156.132812 41.691406 C 157.265625 41.691406 158 42.023438 158 42.558594 Z M 163.066406 42.890625 C 163.066406 44.496094 161 44.429688 160.867188 42.824219 C 160.800781 41.957031 161.132812 41.554688 161.933594 41.621094 C 162.535156 41.621094 163.066406 42.222656 163.066406 42.890625 Z M 165.332031 42.757812 C 165.332031 44.160156 164.332031 44.5625 163.667969 43.425781 C 163.199219 42.625 163.800781 41.421875 164.734375 41.421875 C 165.066406 41.421875 165.332031 42.023438 165.332031 42.757812 Z M 166.464844 43.558594 C 166.265625 44.027344 166.132812 43.695312 166.132812 42.757812 C 166.132812 41.824219 166.265625 41.488281 166.464844 41.890625 C 166.601562 42.359375 166.601562 43.160156 166.464844 43.558594 Z M 175.332031 42.890625 C 175.332031 43.628906 174.800781 44.09375 174 44.09375 C 173.066406 44.09375 172.800781 43.761719 173.066406 42.890625 C 173.398438 41.824219 173.398438 41.824219 172.667969 42.890625 C 172.265625 43.558594 171.332031 44.09375 170.667969 44.09375 C 169.734375 44.09375 169.464844 43.761719 169.734375 42.890625 C 170.066406 41.824219 170.066406 41.824219 169.332031 42.890625 C 168.464844 44.296875 167.265625 44.496094 167.535156 43.226562 C 167.734375 42.089844 169.066406 41.691406 172.464844 41.691406 C 174.734375 41.757812 175.332031 42.023438 175.332031 42.890625 Z M 177.265625 42.558594 C 177.332031 41.957031 177.667969 41.421875 178 41.421875 C 178.464844 41.421875 178.464844 41.824219 178 42.757812 C 177.066406 44.5625 176 44.429688 176.066406 42.558594 C 176.066406 41.15625 176.132812 41.15625 176.667969 42.425781 C 177.132812 43.558594 177.265625 43.558594 177.265625 42.558594 Z M 138 46.765625 C 138 47.503906 137.734375 48.101562 137.398438 48.101562 C 137.066406 48.101562 136.933594 47.503906 137.132812 46.765625 C 137.332031 46.03125 137.601562 45.429688 137.734375 45.429688 C 137.867188 45.429688 138 46.03125 138 46.765625 Z M 139.933594 46.632812 C 140 45.765625 140.535156 45.566406 142.535156 45.765625 C 143.867188 45.898438 145.398438 45.964844 145.867188 46.03125 C 146.265625 46.097656 146.667969 46.5 146.667969 46.96875 C 146.667969 47.636719 145.535156 47.902344 142.667969 47.96875 C 139 47.96875 138.667969 47.902344 138.734375 46.566406 C 138.734375 45.164062 138.800781 45.164062 139.332031 46.433594 C 139.800781 47.503906 139.933594 47.570312 139.933594 46.632812 Z M 147.800781 47.570312 C 147.601562 48.035156 147.464844 47.703125 147.464844 46.765625 C 147.464844 45.832031 147.601562 45.496094 147.800781 45.898438 C 147.933594 46.367188 147.933594 47.167969 147.800781 47.570312 Z M 150.332031 46.765625 C 150.332031 47.234375 149.933594 47.769531 149.535156 47.902344 C 149 48.101562 148.667969 47.636719 148.667969 46.765625 C 148.667969 45.898438 149 45.429688 149.535156 45.566406 C 149.933594 45.765625 150.332031 46.300781 150.332031 46.765625 Z M 153.332031 46.835938 C 153.332031 47.636719 152.867188 48.101562 152.132812 48.101562 C 151.464844 48.101562 150.933594 47.636719 150.933594 46.902344 C 150.933594 46.234375 151.464844 45.632812 152.132812 45.632812 C 152.933594 45.566406 153.332031 45.964844 153.332031 46.835938 Z M 155.398438 47.433594 C 155.800781 47.433594 155.933594 47.167969 155.667969 46.835938 C 155.464844 46.5 155.601562 46.03125 156 45.765625 C 156.332031 45.566406 156.667969 45.964844 156.667969 46.699219 C 156.667969 47.636719 156.265625 48.101562 155.332031 48.101562 C 154.398438 48.101562 154 47.703125 154.066406 46.566406 C 154.132812 45.496094 154.199219 45.363281 154.464844 46.234375 C 154.601562 46.902344 155.066406 47.433594 155.398438 47.433594 Z M 162 46.765625 C 162 48.371094 157.667969 48.570312 157.535156 46.902344 C 157.464844 46.03125 158 45.765625 159.734375 45.699219 C 161.464844 45.632812 162 45.898438 162 46.765625 Z M 163.132812 47.570312 C 162.933594 48.035156 162.800781 47.703125 162.800781 46.765625 C 162.800781 45.832031 162.933594 45.496094 163.132812 45.898438 C 163.265625 46.367188 163.265625 47.167969 163.132812 47.570312 Z M 172 46.902344 C 172 47.636719 171.464844 48.101562 170.667969 48.101562 C 169.734375 48.101562 169.464844 47.769531 169.800781 46.902344 C 170.132812 45.964844 170 46.03125 169.066406 47.101562 C 168 48.4375 168 48.4375 166.933594 47.101562 C 166 46.03125 165.867188 45.964844 166.199219 46.902344 C 166.535156 47.769531 166.265625 48.101562 165.332031 48.101562 C 164.535156 48.101562 164 47.636719 164 46.902344 C 164 46.03125 164.132812 45.964844 164.601562 46.632812 C 165.066406 47.367188 165.199219 47.367188 165.535156 46.632812 C 165.734375 45.964844 166.867188 45.699219 168.933594 45.699219 C 171.398438 45.765625 172 45.964844 172 46.902344 Z M 173.132812 47.570312 C 172.933594 48.035156 172.800781 47.703125 172.800781 46.765625 C 172.800781 45.832031 172.933594 45.496094 173.132812 45.898438 C 173.265625 46.367188 173.265625 47.167969 173.132812 47.570312 Z M 175.332031 45.699219 C 175.332031 45.898438 175.066406 46.234375 174.667969 46.433594 C 174.332031 46.632812 174 46.5 174 46.164062 C 174 45.765625 174.332031 45.429688 174.667969 45.429688 C 175.066406 45.429688 175.332031 45.566406 175.332031 45.699219 Z M 116 48.4375 C 116 50.039062 115.800781 50.109375 112 50.109375 L 108 50.109375 L 108 55.117188 L 112 54.917969 C 115.933594 54.652344 116 54.71875 116 56.386719 C 116 58.058594 115.867188 58.125 112 58.125 L 108 58.125 L 108 63.46875 L 112 63.46875 C 115.800781 63.46875 116 63.535156 116 65.140625 C 116 66.808594 115.933594 66.808594 110 66.808594 L 104 66.808594 L 104 46.765625 L 110 46.765625 C 115.933594 46.765625 116 46.765625 116 48.4375 Z M 133.867188 49.304688 C 134.066406 51.378906 134 51.511719 132.734375 50.84375 C 132 50.441406 130.398438 50.109375 129.066406 50.109375 C 125.867188 50.109375 124 52.578125 124 56.789062 C 124 60.996094 125.867188 63.46875 129.066406 63.46875 C 130.398438 63.46875 132 63.136719 132.734375 62.800781 C 133.867188 62.199219 134 62.335938 134 64.003906 C 134 66.277344 132.867188 66.808594 127.867188 66.808594 C 121.933594 66.808594 118.464844 61.398438 120 54.316406 C 121.265625 48.636719 123.867188 46.632812 129.667969 46.902344 C 133.667969 47.101562 133.667969 47.101562 133.867188 49.304688 Z M 143.066406 50.308594 C 143.332031 50.574219 143.132812 50.777344 142.601562 50.777344 C 141.867188 50.777344 141.867188 50.910156 142.535156 51.378906 C 143.132812 51.710938 142.667969 51.910156 141.199219 51.976562 C 139.132812 52.046875 137.332031 51.175781 137.332031 50.109375 C 137.332031 49.507812 142.398438 49.640625 143.066406 50.308594 Z M 144.464844 51.578125 C 144.265625 52.046875 144.132812 51.710938 144.132812 50.777344 C 144.132812 49.839844 144.265625 49.507812 144.464844 49.90625 C 144.601562 50.375 144.601562 51.175781 144.464844 51.578125 Z M 150 50.777344 C 150 51.578125 149.398438 51.910156 147.667969 51.910156 C 145.933594 51.910156 145.332031 51.578125 145.332031 50.777344 C 145.332031 49.972656 145.933594 49.640625 147.667969 49.640625 C 149.398438 49.640625 150 49.972656 150 50.777344 Z M 152.066406 51.445312 C 152.398438 51.445312 152.601562 51.109375 152.535156 50.640625 C 152.398438 50.109375 153.601562 49.839844 156.199219 49.773438 C 159.667969 49.640625 160 49.773438 160 51.042969 C 160 52.179688 159.867188 52.246094 159.332031 51.445312 C 159 50.910156 158.667969 50.777344 158.667969 51.175781 C 158.667969 51.578125 157.601562 51.910156 156.332031 51.976562 C 154.464844 52.046875 154.132812 51.84375 154.398438 50.910156 C 154.734375 49.839844 154.734375 49.839844 154 50.910156 C 152.867188 52.714844 150.667969 52.445312 150.734375 50.574219 C 150.800781 49.507812 150.867188 49.371094 151.132812 50.242188 C 151.265625 50.910156 151.734375 51.445312 152.066406 51.445312 Z M 162.066406 50.710938 C 162.933594 49.304688 168.667969 49.371094 168.667969 50.84375 C 168.667969 52.378906 164.265625 52.445312 163.332031 50.910156 C 162.601562 49.839844 162.601562 49.839844 162.933594 50.910156 C 163.199219 51.777344 162.933594 52.113281 162 52.113281 C 161.066406 52.113281 160.667969 51.710938 160.734375 50.574219 C 160.800781 49.304688 160.867188 49.304688 161.132812 50.375 C 161.398438 51.378906 161.601562 51.445312 162.066406 50.710938 Z M 169.800781 51.578125 C 169.601562 52.046875 169.464844 51.710938 169.464844 50.777344 C 169.464844 49.839844 169.601562 49.507812 169.800781 49.90625 C 169.933594 50.375 169.933594 51.175781 169.800781 51.578125 Z M 141.332031 54.917969 C 141.332031 56.121094 141.199219 56.253906 140.734375 55.453125 C 140.332031 54.917969 140.265625 54.25 140.398438 53.984375 C 141 53.046875 141.332031 53.382812 141.332031 54.917969 Z M 144 54.785156 C 144.601562 55.921875 144.535156 56.121094 143.332031 56.121094 C 142.464844 56.121094 142 55.652344 142 54.785156 C 142 54.050781 142.265625 53.449219 142.667969 53.449219 C 143 53.449219 143.601562 54.050781 144 54.785156 Z M 146.667969 54.851562 C 146.667969 56.453125 145.601562 56.523438 144.734375 54.917969 C 144.199219 53.984375 144.332031 53.714844 145.398438 53.648438 C 146.265625 53.582031 146.667969 53.984375 146.667969 54.851562 Z M 148.734375 55.453125 C 149.066406 55.453125 149.265625 55.117188 149.199219 54.71875 C 149.066406 54.316406 149.535156 53.847656 150.132812 53.78125 C 151.132812 53.582031 151.199219 53.78125 150.667969 54.851562 C 149.667969 56.722656 147.332031 56.523438 147.398438 54.585938 C 147.464844 53.515625 147.535156 53.382812 147.800781 54.25 C 147.933594 54.917969 148.398438 55.453125 148.734375 55.453125 Z M 153.667969 54.851562 C 153.667969 55.386719 153 55.851562 152.132812 55.988281 C 150.734375 56.1875 150.667969 56.054688 151.332031 54.785156 C 152.132812 53.246094 153.667969 53.316406 153.667969 54.851562 Z M 156.667969 54.917969 C 156.667969 55.652344 156.199219 56.121094 155.464844 56.121094 C 154.734375 56.121094 154.265625 55.652344 154.265625 54.851562 C 154.265625 53.984375 154.734375 53.582031 155.464844 53.648438 C 156.132812 53.714844 156.667969 54.25 156.667969 54.917969 Z M 158.601562 54.71875 C 158.667969 53.113281 165.332031 53.246094 165.332031 54.785156 C 165.332031 55.71875 164.601562 55.921875 161.332031 55.988281 C 157.667969 55.988281 157.332031 55.921875 157.398438 54.585938 C 157.398438 53.179688 157.464844 53.179688 158 54.449219 C 158.398438 55.453125 158.601562 55.519531 158.601562 54.71875 Z M 166.464844 55.585938 C 166.265625 56.054688 166.132812 55.71875 166.132812 54.785156 C 166.132812 53.847656 166.265625 53.515625 166.464844 53.914062 C 166.601562 54.382812 166.601562 55.183594 166.464844 55.585938 Z M 168.667969 54.785156 C 168.667969 55.519531 168.398438 56.121094 168 56.121094 C 167.667969 56.121094 167.332031 55.519531 167.332031 54.785156 C 167.332031 54.050781 167.667969 53.449219 168 53.449219 C 168.398438 53.449219 168.667969 54.050781 168.667969 54.785156 Z M 143.332031 58.792969 C 143.332031 60.195312 142.332031 60.597656 141.667969 59.460938 C 141.199219 58.660156 141.800781 57.457031 142.734375 57.457031 C 143.066406 57.457031 143.332031 58.058594 143.332031 58.792969 Z M 144.464844 59.59375 C 144.265625 60.0625 144.132812 59.726562 144.132812 58.792969 C 144.132812 57.859375 144.265625 57.523438 144.464844 57.925781 C 144.601562 58.390625 144.601562 59.195312 144.464844 59.59375 Z M 153.332031 58.925781 C 153.332031 59.660156 152.800781 60.128906 152 60.128906 C 151.066406 60.128906 150.800781 59.796875 151.066406 58.925781 C 151.398438 57.992188 151.332031 57.925781 150.734375 58.792969 C 150.398438 59.328125 149 59.796875 147.800781 59.863281 C 145.667969 59.929688 145.601562 59.863281 146.464844 58.859375 C 147.867188 57.191406 153.332031 57.324219 153.332031 58.925781 Z M 155.265625 58.726562 C 155.332031 57.992188 156 57.65625 157.535156 57.589844 C 159.265625 57.523438 159.734375 57.789062 159.734375 58.792969 C 159.734375 59.796875 159.199219 59.996094 156.867188 59.996094 C 154.332031 59.996094 154 59.863281 154.066406 58.59375 C 154.066406 57.191406 154.132812 57.191406 154.667969 58.460938 C 155.066406 59.460938 155.265625 59.527344 155.265625 58.726562 Z M 161.601562 60.0625 C 161 60.730469 159.867188 58.859375 160.398438 58.058594 C 160.734375 57.457031 161 57.523438 161.332031 58.527344 C 161.601562 59.195312 161.734375 59.929688 161.601562 60.0625 Z M 163.332031 58.925781 C 163.332031 60.128906 163.199219 60.261719 162.734375 59.460938 C 162.332031 58.925781 162.265625 58.257812 162.398438 57.992188 C 163 57.054688 163.332031 57.390625 163.332031 58.925781 Z M 168.667969 58.792969 C 168.667969 59.59375 168.066406 59.929688 166.332031 59.929688 C 164.601562 59.929688 164 59.59375 164 58.792969 C 164 57.992188 164.601562 57.65625 166.332031 57.65625 C 168.066406 57.65625 168.667969 57.992188 168.667969 58.792969 Z M 141.332031 62.800781 C 141.332031 63.535156 140.867188 64.136719 140.332031 64.136719 C 139.132812 64.136719 139.066406 63.335938 140.132812 62.265625 C 141.199219 61.199219 141.332031 61.265625 141.332031 62.800781 Z M 143.265625 62.601562 C 143.332031 60.996094 144.398438 61.132812 144.398438 62.800781 C 144.398438 63.671875 143.933594 64.136719 143.199219 64.136719 C 142.398438 64.136719 142 63.671875 142.066406 62.601562 C 142.066406 61.199219 142.132812 61.199219 142.667969 62.46875 C 143.132812 63.601562 143.265625 63.601562 143.265625 62.601562 Z M 150 62.867188 C 150 63.671875 149.398438 63.9375 147.734375 63.871094 C 146.464844 63.871094 145.265625 63.601562 145 63.335938 C 144.066406 62.402344 145.332031 61.664062 147.667969 61.734375 C 149.332031 61.800781 150 62.132812 150 62.867188 Z M 151.933594 62.601562 C 152 61.132812 153.667969 61.464844 153.667969 62.867188 C 153.667969 63.402344 153 63.871094 152.199219 64.003906 C 151 64.203125 150.667969 63.9375 150.734375 62.667969 C 150.734375 61.199219 150.800781 61.199219 151.332031 62.46875 C 151.867188 63.671875 151.933594 63.671875 151.933594 62.601562 Z M 158 62.601562 C 158 63.070312 158.332031 63.46875 158.734375 63.46875 C 159.066406 63.46875 159.265625 63.203125 159 62.867188 C 158.800781 62.535156 158.933594 62.066406 159.332031 61.800781 C 159.667969 61.597656 160 62 160 62.734375 C 160 64.472656 158.199219 64.605469 156.867188 62.933594 C 155.933594 61.867188 155.933594 61.867188 156.265625 62.933594 C 156.535156 63.804688 156.265625 64.136719 155.464844 64.136719 C 154.734375 64.136719 154.265625 63.601562 154.265625 62.800781 C 154.265625 61.734375 154.667969 61.464844 156.132812 61.597656 C 157.132812 61.664062 158 62.132812 158 62.601562 Z M 162.667969 62.800781 C 163.265625 63.9375 163.199219 64.136719 162 64.136719 C 161.132812 64.136719 160.667969 63.671875 160.667969 62.800781 C 160.667969 62.066406 160.933594 61.464844 161.332031 61.464844 C 161.667969 61.464844 162.265625 62.066406 162.667969 62.800781 Z M 165.332031 62.867188 C 165.332031 64.472656 164.265625 64.539062 163.398438 62.933594 C 162.867188 62 163 61.734375 164.066406 61.664062 C 164.933594 61.597656 165.332031 62 165.332031 62.867188 Z M 166.464844 63.601562 C 166.265625 64.070312 166.132812 63.738281 166.132812 62.800781 C 166.132812 61.867188 166.265625 61.53125 166.464844 61.933594 C 166.601562 62.402344 166.601562 63.203125 166.464844 63.601562 Z M 170.667969 62.265625 C 170.667969 62.601562 170.332031 62.667969 169.867188 62.402344 C 169.332031 62.066406 169.265625 62.265625 169.535156 63.003906 C 169.800781 63.804688 169.601562 64.136719 168.800781 64.136719 C 168.132812 64.136719 167.601562 63.601562 167.535156 62.867188 C 167.464844 62 167.867188 61.597656 169.066406 61.597656 C 169.933594 61.597656 170.667969 61.933594 170.667969 62.265625 Z M 141.933594 66.277344 C 142.667969 66.945312 142.800781 66.945312 142.398438 66.277344 C 142.066406 65.742188 142.332031 65.472656 143.132812 65.472656 C 143.933594 65.472656 144.398438 65.941406 144.398438 66.808594 C 144.398438 67.8125 143.933594 68.078125 142.199219 68.011719 C 140.535156 67.945312 140 67.613281 140 66.675781 C 140 65.273438 140.667969 65.140625 141.933594 66.277344 Z M 146.667969 66.808594 C 146.667969 67.546875 146.398438 68.148438 146.066406 68.148438 C 145.132812 68.148438 144.535156 66.945312 145 66.140625 C 145.667969 65.007812 146.667969 65.40625 146.667969 66.808594 Z M 148.601562 66.742188 C 148.667969 65.207031 153.332031 65.273438 153.332031 66.808594 C 153.332031 67.613281 152.601562 67.878906 150.332031 67.945312 C 147.667969 68.078125 147.332031 67.878906 147.398438 66.609375 C 147.398438 65.207031 147.464844 65.207031 148 66.476562 C 148.398438 67.476562 148.601562 67.546875 148.601562 66.742188 Z M 155.398438 67.476562 C 155.800781 67.476562 155.933594 67.210938 155.667969 66.878906 C 155.464844 66.542969 155.601562 66.074219 156 65.808594 C 156.332031 65.609375 156.667969 66.007812 156.667969 66.742188 C 156.667969 67.679688 156.265625 68.148438 155.332031 68.148438 C 154.398438 68.148438 154 67.746094 154.066406 66.609375 C 154.132812 65.539062 154.199219 65.40625 154.464844 66.277344 C 154.601562 66.945312 155.066406 67.476562 155.398438 67.476562 Z M 159.734375 66.808594 C 159.734375 67.613281 159.265625 68.148438 158.667969 68.148438 C 158.066406 68.148438 157.601562 67.613281 157.601562 66.808594 C 157.601562 66.007812 158.066406 65.472656 158.667969 65.472656 C 159.265625 65.472656 159.734375 66.007812 159.734375 66.808594 Z M 162 66.808594 C 162 67.546875 161.734375 68.148438 161.398438 68.148438 C 160.464844 68.148438 159.867188 66.945312 160.332031 66.140625 C 161 65.007812 162 65.40625 162 66.808594 Z M 163.132812 67.613281 C 162.933594 68.078125 162.800781 67.746094 162.800781 66.808594 C 162.800781 65.875 162.933594 65.539062 163.132812 65.941406 C 163.265625 66.410156 163.265625 67.210938 163.132812 67.613281 Z M 167.667969 66.140625 C 167.464844 66.542969 167 66.675781 166.667969 66.476562 C 166.398438 66.277344 166 66.609375 165.734375 67.144531 C 165.199219 68.546875 164 68.414062 164 66.945312 C 164 66.074219 164.601562 65.742188 166.066406 65.609375 C 167.332031 65.472656 167.933594 65.675781 167.667969 66.140625 Z M 143.332031 70.820312 C 143.332031 71.554688 143.066406 72.15625 142.734375 72.15625 C 142.398438 72.15625 142 71.554688 141.800781 70.820312 C 141.601562 69.949219 141.800781 69.484375 142.398438 69.484375 C 142.933594 69.484375 143.332031 70.085938 143.332031 70.820312 Z M 144.464844 71.621094 C 144.265625 72.089844 144.132812 71.753906 144.132812 70.820312 C 144.132812 69.882812 144.265625 69.550781 144.464844 69.949219 C 144.601562 70.417969 144.601562 71.21875 144.464844 71.621094 Z M 150 70.820312 C 150 71.621094 149.398438 71.953125 147.667969 71.953125 C 145.933594 71.953125 145.332031 71.621094 145.332031 70.820312 C 145.332031 70.015625 145.933594 69.683594 147.667969 69.683594 C 149.398438 69.683594 150 70.015625 150 70.820312 Z M 152 71.488281 C 152.332031 71.488281 152.464844 71.019531 152.265625 70.484375 C 151.734375 69.082031 153.132812 69.214844 154 70.617188 C 154.734375 71.753906 154.734375 71.753906 154.398438 70.683594 C 154.132812 69.75 154.464844 69.550781 156.332031 69.617188 C 158 69.683594 158.667969 70.015625 158.667969 70.820312 C 158.667969 71.6875 157.867188 71.886719 154.667969 71.953125 C 151 72.023438 150.667969 71.886719 150.734375 70.550781 C 150.800781 69.484375 150.867188 69.414062 151.132812 70.285156 C 151.265625 70.953125 151.667969 71.488281 152 71.488281 Z M 159.800781 71.621094 C 159.601562 72.089844 159.464844 71.753906 159.464844 70.820312 C 159.464844 69.882812 159.601562 69.550781 159.800781 69.949219 C 159.933594 70.417969 159.933594 71.21875 159.800781 71.621094 Z M 161.933594 70.617188 C 162 69.949219 162.398438 69.484375 162.867188 69.617188 C 164.199219 70.085938 163.734375 71.6875 162.199219 71.886719 C 161 72.089844 160.667969 71.820312 160.734375 70.617188 C 160.734375 69.214844 160.800781 69.214844 161.332031 70.484375 C 161.867188 71.6875 161.933594 71.6875 161.933594 70.617188 Z M 144.398438 74.828125 C 144.398438 76.429688 143.066406 76.230469 142.800781 74.628906 C 142.667969 74.027344 143 73.492188 143.464844 73.492188 C 144 73.492188 144.398438 74.09375 144.398438 74.828125 Z M 146.667969 74.828125 C 146.667969 75.5625 146.398438 76.164062 146.066406 76.164062 C 145.132812 76.164062 144.535156 74.960938 145 74.160156 C 145.667969 73.023438 146.667969 73.425781 146.667969 74.828125 Z M 148.667969 75.496094 C 149 75.496094 149.132812 75.027344 148.933594 74.492188 C 148.398438 73.089844 149.800781 73.222656 150.667969 74.628906 C 151.398438 75.695312 151.398438 75.761719 151.066406 74.695312 C 150.800781 73.691406 151.132812 73.558594 153.667969 73.691406 C 155.933594 73.757812 156.667969 74.09375 156.667969 74.894531 C 156.667969 75.828125 155.867188 75.964844 152 75.964844 C 147.667969 75.964844 147.332031 75.828125 147.398438 74.558594 C 147.464844 73.425781 147.535156 73.359375 147.800781 74.292969 C 147.933594 74.960938 148.332031 75.496094 148.667969 75.496094 Z M 158.601562 74.628906 C 158.667969 73.023438 159.734375 73.15625 159.734375 74.828125 C 159.734375 75.695312 159.265625 76.164062 158.535156 76.164062 C 157.734375 76.164062 157.332031 75.695312 157.398438 74.628906 C 157.398438 73.222656 157.464844 73.222656 158 74.492188 C 158.464844 75.628906 158.601562 75.628906 158.601562 74.628906 Z M 146.667969 78.300781 C 146.667969 77.902344 146.933594 77.5 147.332031 77.5 C 147.667969 77.5 147.800781 78.035156 147.535156 78.636719 C 147.199219 79.636719 147.332031 79.570312 148.265625 78.503906 C 149.332031 77.164062 149.332031 77.164062 150.398438 78.503906 C 151.265625 79.503906 151.398438 79.570312 151.132812 78.703125 C 150.867188 77.902344 151.066406 77.632812 152.066406 77.699219 C 152.734375 77.765625 153.332031 78.234375 153.332031 78.835938 C 153.332031 79.703125 152.535156 79.90625 149.332031 79.90625 C 145.734375 79.90625 145.332031 79.773438 145.332031 78.570312 C 145.332031 77.433594 145.464844 77.367188 146 78.167969 C 146.398438 78.835938 146.667969 78.902344 146.667969 78.300781 Z M 155.265625 78.636719 C 155.332031 78.035156 155.667969 77.5 156.066406 77.5 C 156.398438 77.5 156.601562 77.765625 156.398438 78.035156 C 156.199219 78.367188 156.464844 78.636719 157 78.636719 C 157.535156 78.636719 157.800781 78.367188 157.601562 78.035156 C 157.398438 77.765625 158.066406 77.5 159 77.5 C 160.667969 77.5 160.667969 77.566406 159.535156 78.703125 C 158.867188 79.371094 157.332031 79.972656 156.199219 80.039062 C 154.332031 80.171875 154 79.972656 154.066406 78.703125 C 154.066406 77.234375 154.132812 77.234375 154.667969 78.503906 C 155.132812 79.636719 155.265625 79.636719 155.265625 78.636719 Z M 150 82.84375 C 150 83.847656 149.667969 84.113281 148.535156 83.914062 C 147.667969 83.714844 146.800781 83.578125 146.601562 83.578125 C 146.332031 83.511719 146 83.046875 145.734375 82.511719 C 145.464844 81.710938 145.933594 81.507812 147.667969 81.507812 C 149.535156 81.507812 150 81.777344 150 82.84375 Z M 151.933594 82.777344 C 152 82.042969 152.734375 81.710938 154.535156 81.640625 C 156.265625 81.574219 156.734375 81.710938 156 82.175781 C 155.464844 82.511719 154.867188 82.644531 154.601562 82.445312 C 154.332031 82.308594 154 82.644531 153.734375 83.179688 C 153.535156 83.714844 152.734375 84.179688 152 84.179688 C 151.066406 84.179688 150.667969 83.78125 150.734375 82.644531 C 150.734375 81.242188 150.800781 81.242188 151.332031 82.511719 C 151.734375 83.511719 151.933594 83.578125 151.933594 82.777344 Z M 151.933594 82.777344 "/>
<path style=" stroke:none;fill-rule:nonzero;fill:rgb(0%,0%,0%);fill-opacity:1;" d="M 35.464844 28.863281 C 34.066406 30.800781 31.933594 34.074219 30.667969 36.078125 C 29.398438 38.082031 28.132812 39.820312 27.867188 39.953125 C 27.535156 40.085938 27.332031 40.488281 27.332031 40.820312 C 27.332031 41.222656 26.132812 43.09375 24.667969 45.097656 C 23.199219 47.101562 22 48.90625 22 49.171875 C 22 49.441406 21.265625 50.640625 20.332031 51.84375 C 19.132812 53.382812 18.667969 54.851562 18.667969 56.988281 C 18.667969 61.398438 19.464844 61.800781 28.734375 61.800781 L 36.667969 61.734375 L 36.734375 64.941406 C 36.867188 68.882812 36.867188 68.816406 37.933594 70.550781 C 38.734375 71.6875 39.332031 71.886719 41.601562 71.621094 C 45.535156 71.21875 46.601562 70.015625 46.800781 65.609375 C 47 62.132812 47.066406 61.933594 48.867188 61.734375 C 51.601562 61.464844 52.667969 60.261719 52.667969 57.457031 C 52.667969 54.585938 51.066406 52.78125 48.464844 52.78125 L 46.667969 52.78125 L 46.667969 40.21875 C 46.667969 25.65625 46.535156 25.386719 41.132812 25.386719 C 38.199219 25.386719 37.933594 25.523438 35.464844 28.863281 Z M 44.667969 41.089844 L 44.667969 54.785156 L 50.667969 54.785156 L 50.667969 60.128906 L 44.667969 60.128906 L 44.667969 70.152344 L 38.667969 70.152344 L 38.667969 60.128906 L 19.867188 60.128906 L 20.332031 57.054688 C 20.601562 54.652344 22.464844 51.378906 29.535156 40.753906 L 38.332031 27.460938 L 41.535156 27.390625 L 44.667969 27.390625 Z M 44.667969 41.089844 "/>
<path style=" stroke:none;fill-rule:nonzero;fill:rgb(0%,0%,0%);fill-opacity:1;" d="M 32.667969 45.429688 C 29.734375 49.839844 27.332031 53.714844 27.332031 54.117188 C 27.332031 54.515625 29.535156 54.785156 33 54.785156 L 38.667969 54.785156 L 38.667969 46.097656 C 38.667969 41.289062 38.535156 37.414062 38.332031 37.414062 C 38.199219 37.414062 35.601562 41.023438 32.667969 45.429688 Z M 36.667969 48.101562 L 36.667969 52.78125 L 34.066406 52.78125 C 32.601562 52.78125 31.265625 52.511719 31.066406 52.179688 C 30.734375 51.644531 35.734375 43.425781 36.398438 43.425781 C 36.535156 43.425781 36.667969 45.496094 36.667969 48.101562 Z M 36.667969 48.101562 "/>
<path style=" stroke:none;fill-rule:nonzero;fill:rgb(0%,0%,0%);fill-opacity:1;" d="M 51.601562 46.164062 C 49.667969 48.304688 50.867188 51.308594 53.800781 51.710938 C 54.800781 51.84375 55 52.511719 54.933594 54.984375 C 54.800781 61.265625 54.734375 61.398438 52.667969 62.46875 C 50.535156 63.535156 50 65.875 51.464844 67.34375 C 52.535156 68.414062 64.800781 68.414062 65.867188 67.34375 C 67.535156 65.675781 66 61.664062 63.667969 61.53125 C 63.332031 61.464844 62.933594 59.128906 62.800781 56.320312 C 62.667969 53.449219 62.800781 51.378906 63.066406 51.644531 C 63.332031 51.910156 64.265625 51.644531 65.132812 51.109375 C 66.535156 50.175781 66.867188 50.175781 68.132812 51.109375 C 69 51.644531 70.132812 52.113281 70.800781 52.113281 C 71.867188 52.113281 72 52.847656 72 59.394531 C 72 66.210938 72.132812 66.808594 73.464844 67.746094 C 75.464844 69.148438 76.867188 69.082031 78.332031 67.476562 C 79.265625 66.410156 79.601562 64.738281 79.800781 59.328125 C 79.933594 55.585938 80.066406 52.511719 80.199219 52.445312 C 80.265625 52.378906 81.132812 52.113281 82.132812 51.84375 C 83.667969 51.511719 83.933594 51.710938 84.332031 53.449219 C 84.734375 55.386719 88.132812 59.460938 89.332031 59.460938 C 89.667969 59.460938 90.734375 59.796875 91.734375 60.128906 C 94.398438 61.199219 92.867188 62.132812 89.535156 61.53125 C 86 60.863281 84 62 84 64.671875 C 84 69.28125 94.332031 70.417969 99 66.410156 C 100.398438 65.207031 100.933594 64.070312 101.199219 61.597656 C 101.464844 58.527344 101.332031 58.191406 99 55.921875 C 97.601562 54.585938 96.199219 53.648438 95.933594 53.847656 C 95.601562 54.050781 95.332031 53.847656 95.332031 53.515625 C 95.332031 53.113281 94.734375 52.78125 94 52.78125 C 93.265625 52.78125 92.667969 52.511719 92.667969 52.179688 C 92.667969 51.910156 93.867188 51.777344 95.332031 51.910156 C 98.601562 52.3125 100 51.308594 100 48.636719 C 100 44.496094 91.667969 43.492188 87 47.035156 C 85.332031 48.304688 84.667969 48.570312 84.667969 47.902344 C 84.667969 45.699219 82.667969 45.097656 75.867188 45.296875 C 72.265625 45.363281 68.667969 45.765625 67.933594 46.164062 C 66.933594 46.699219 66.332031 46.632812 65.535156 45.964844 C 63.933594 44.628906 52.867188 44.761719 51.601562 46.164062 Z M 65.332031 48.4375 C 65.332031 49.90625 65.066406 50.109375 63 50.109375 L 60.667969 50.109375 L 60.667969 63.46875 L 63 63.46875 C 65.066406 63.46875 65.332031 63.671875 65.332031 65.140625 C 65.332031 66.808594 65.332031 66.808594 59 66.808594 C 52.667969 66.808594 52.667969 66.808594 52.667969 65.140625 C 52.667969 63.738281 53 63.46875 54.667969 63.46875 L 56.667969 63.46875 L 56.667969 50.109375 L 54.667969 50.109375 C 53 50.109375 52.667969 49.839844 52.667969 48.4375 C 52.667969 46.765625 52.667969 46.765625 59 46.765625 C 65.332031 46.765625 65.332031 46.765625 65.332031 48.4375 Z M 83.332031 48.4375 C 83.332031 49.972656 83.066406 50.109375 80.535156 50.109375 L 77.667969 50.109375 L 77.867188 58.460938 L 78.066406 66.808594 L 74 66.808594 L 74 50.109375 L 71.332031 50.109375 C 68.933594 50.109375 68.667969 49.90625 68.667969 48.4375 L 68.667969 46.765625 L 83.332031 46.765625 Z M 98.535156 48.773438 C 98.734375 50.441406 98.601562 50.441406 94.535156 50.441406 C 90.867188 50.441406 90.332031 50.574219 90.332031 51.710938 C 90.332031 53.046875 90.734375 53.382812 95.398438 55.453125 C 100.265625 57.65625 101.332031 61.53125 98 64.871094 C 96.132812 66.808594 95.800781 66.878906 90.933594 66.675781 C 85.867188 66.476562 85.800781 66.476562 85.734375 64.671875 L 85.601562 62.933594 L 90 63.269531 C 93.535156 63.535156 94.535156 63.402344 95.265625 62.535156 C 96.066406 61.597656 96 61.265625 95 60.128906 C 94.398438 59.460938 93 58.660156 91.933594 58.460938 C 88.734375 57.722656 86 54.984375 86 52.511719 C 86 48.4375 88.601562 46.699219 94.332031 46.96875 C 98.066406 47.101562 98.332031 47.234375 98.535156 48.773438 Z M 98.535156 48.773438 "/>
<path style=" stroke:none;fill-rule:nonzero;fill:rgb(0%,0%,0%);fill-opacity:1;" d="M 177.265625 62 C 176 63.203125 174.464844 64.539062 173.867188 65.007812 C 173.199219 65.40625 172.601562 66.410156 172.464844 67.144531 C 172.332031 67.878906 171.867188 69.214844 171.535156 70.152344 C 171.132812 71.152344 171.066406 72.15625 171.398438 72.554688 C 171.734375 72.957031 171.800781 73.425781 171.601562 73.691406 C 170.734375 74.558594 172.132812 76.832031 173.601562 76.832031 C 175.332031 76.832031 177.199219 75.09375 176.332031 74.292969 C 176.066406 74.027344 175.667969 74.226562 175.535156 74.695312 C 175.332031 75.09375 174.933594 75.363281 174.601562 75.09375 C 173.601562 74.492188 173.933594 73.492188 175.199219 73.492188 C 176.800781 73.425781 178.867188 71.6875 178.332031 70.820312 C 178.066406 70.417969 178.332031 69.683594 178.867188 69.28125 C 179.464844 68.816406 180.066406 67.546875 180.199219 66.476562 C 180.398438 65.339844 180.734375 64.003906 180.933594 63.46875 C 181.199219 62.867188 180.933594 61.867188 180.464844 61.199219 C 179.535156 59.996094 179.398438 59.996094 177.265625 62 Z M 180 62.667969 C 180 63.402344 179.464844 63.871094 178.667969 63.9375 C 177 64.070312 176.933594 63.136719 178.535156 62.199219 C 180 61.265625 180 61.265625 180 62.667969 Z M 175.667969 66.878906 C 175.667969 67.410156 174.933594 67.878906 174 67.945312 C 173.066406 68.011719 172.734375 67.945312 173.199219 67.746094 C 173.601562 67.546875 174 66.945312 174 66.34375 C 174 65.808594 174.398438 65.472656 174.867188 65.609375 C 175.265625 65.808594 175.667969 66.34375 175.667969 66.878906 Z M 179 66.808594 C 179 67.34375 178.398438 67.878906 177.667969 68.011719 C 176.667969 68.148438 176.265625 67.8125 176.265625 66.808594 C 176.265625 65.808594 176.667969 65.472656 177.667969 65.609375 C 178.398438 65.742188 179 66.277344 179 66.808594 Z M 175.332031 70.820312 C 175.332031 71.753906 174.933594 72.089844 174 71.953125 C 173.265625 71.820312 172.464844 71.488281 172.199219 71.152344 C 171.867188 70.886719 172.066406 70.886719 172.601562 71.152344 C 173.332031 71.554688 173.464844 71.421875 173.132812 70.617188 C 172.800781 69.816406 173.066406 69.484375 174 69.484375 C 174.867188 69.484375 175.332031 69.949219 175.332031 70.820312 Z M 176.867188 70.820312 C 177.066406 71.554688 176.933594 72.15625 176.601562 72.15625 C 176.265625 72.15625 176 71.554688 176 70.820312 C 176 70.085938 176.132812 69.484375 176.265625 69.484375 C 176.398438 69.484375 176.667969 70.085938 176.867188 70.820312 Z M 173.535156 74.828125 C 173.734375 75.5625 173.601562 76.164062 173.265625 76.164062 C 172.933594 76.164062 172.667969 75.5625 172.667969 74.828125 C 172.667969 74.09375 172.800781 73.492188 172.933594 73.492188 C 173.066406 73.492188 173.332031 74.09375 173.535156 74.828125 Z M 173.535156 74.828125 "/>
</g>
</svg>
