<?xml version="1.0" standalone="no"?>
<!DOCTYPE svg PUBLIC "-//W3C//DTD SVG 20010904//EN"
 "http://www.w3.org/TR/2001/REC-SVG-20010904/DTD/svg10.dtd">
<svg version="1.0" xmlns="http://www.w3.org/2000/svg"
 width="300.000000pt" height="139.000000pt" viewBox="0 0 300.000000 139.000000"
 preserveAspectRatio="xMidYMid meet">
<metadata>
Created by potrace 1.10, written by Peter Selinger 2001-2011
</metadata>
<g transform="translate(0.000000,139.000000) scale(0.100000,-0.100000)"
fill="#000000" stroke="none">
<path d="M5 695 l0 -685 1493 0 1492 0 0 685 0 685 -1492 0 -1493 0 0 -685z
m2829 652 l129 -2 -2 -649 c-1 -358 -4 -653 -7 -658 -3 -4 -663 -7 -1466 -5
l-1462 2 -1 655 -2 655 886 5 c812 5 1603 4 1925 -3z"/>
<path d="M1995 1300 c-11 -4 -23 -5 -28 -3 -4 2 -22 -8 -39 -22 l-32 -27 -17
23 -17 23 -34 -23 c-33 -24 -103 -109 -95 -117 2 -3 15 4 27 14 26 21 60 18
60 -4 0 -10 -14 -14 -42 -15 -76 -2 -99 -14 -118 -59 -7 -16 -17 -30 -22 -30
-5 0 -4 -9 2 -20 6 -11 8 -26 4 -32 -4 -7 -8 -39 -9 -72 0 -55 3 -65 32 -99
18 -20 33 -41 33 -47 0 -5 11 -12 25 -16 13 -3 29 -12 36 -20 15 -18 43 -18
59 1 9 11 33 15 87 15 64 0 79 -3 108 -25 24 -19 31 -31 28 -46 -5 -18 -7 -18
-22 -5 -21 19 -99 37 -107 25 -3 -5 -14 -9 -26 -9 -50 0 -116 -84 -118 -150
-1 -24 -1 -24 -10 -3 -10 24 -45 47 -63 40 -7 -2 -21 -1 -32 3 -14 5 -5 9 32
14 29 3 56 12 60 19 11 18 3 60 -15 73 -19 14 -179 11 -193 -3 -14 -14 -13
-311 1 -327 12 -16 184 -16 199 -1 15 16 17 61 2 79 -9 10 -29 16 -57 16 -24
0 -44 5 -44 10 0 6 20 10 45 10 31 0 47 5 54 17 8 15 11 14 21 -12 43 -108 69
-130 156 -130 88 0 126 39 92 94 -9 14 -17 17 -38 11 -64 -18 -101 13 -94 79
6 51 20 62 76 60 53 -2 68 6 71 39 0 11 5 18 10 15 4 -3 6 -11 3 -18 -2 -7 6
-23 20 -36 13 -12 24 -30 24 -39 0 -9 3 -20 7 -23 12 -12 12 -61 1 -68 -18
-11 -20 -105 -3 -119 8 -7 15 -21 15 -31 0 -10 4 -20 10 -24 5 -3 7 -12 4 -20
-6 -14 29 -69 38 -60 2 2 3 -13 2 -33 -2 -54 24 -79 86 -81 45 -1 53 4 109 51
60 50 72 73 50 95 -15 15 -2 33 24 33 21 -1 22 -1 3 -15 -11 -8 -17 -17 -14
-21 10 -9 46 19 47 35 2 44 11 63 54 106 42 41 47 51 47 91 0 26 -5 44 -11 44
-6 0 -9 -9 -6 -20 3 -11 1 -20 -4 -20 -13 0 0 95 18 138 7 18 17 31 21 28 9
-5 90 76 113 114 25 40 30 80 10 80 -10 0 -23 6 -30 13 -11 10 -13 10 -7 0 5
-10 -5 -13 -38 -13 -37 0 -46 3 -46 18 0 12 3 14 8 4 9 -13 31 -12 74 6 32 13
69 5 46 -9 -9 -6 -9 -9 -1 -9 20 0 24 18 7 35 -16 16 -48 13 -68 -6 -16 -15
-46 -10 -53 9 -9 25 -44 62 -60 62 -8 0 -12 4 -9 9 3 5 -3 20 -14 34 -11 14
-20 30 -20 36 0 12 -39 71 -53 82 -5 3 -6 17 -2 30 9 42 -4 48 -113 51 -56 2
-102 6 -102 11 0 4 10 7 23 7 21 1 21 1 3 12 -16 9 -22 7 -35 -8 -16 -20 -61
-29 -71 -16 -3 5 -20 18 -37 31 -18 12 -33 28 -33 34 0 7 4 6 10 -3 6 -9 10
-10 10 -3 0 6 -5 15 -10 18 -6 4 -8 9 -6 13 6 9 -65 11 -89 2z m53 -21 c-2 -6
-30 -13 -62 -15 -36 -2 -56 0 -50 6 5 5 32 11 59 13 28 2 52 4 53 5 2 1 2 -3
0 -9z m-178 -9 c0 -5 -4 -10 -10 -10 -5 0 -10 5 -10 10 0 6 5 10 10 10 6 0 10
-4 10 -10z m0 -46 c0 -10 -13 -14 -42 -14 l-41 0 22 19 c24 21 61 17 61 -5z
m150 0 c0 -10 -15 -14 -60 -14 -43 0 -59 4 -57 13 3 18 21 23 72 19 30 -3 45
-9 45 -18z m-133 -6 c-3 -8 -6 -5 -6 6 -1 11 2 17 5 13 3 -3 4 -12 1 -19z
m163 10 c0 6 7 12 15 12 8 0 15 -4 15 -8 0 -4 10 -8 21 -9 12 -1 26 -6 32 -12
6 -6 3 -8 -9 -6 -11 2 -36 4 -56 4 -29 1 -38 5 -38 19 0 14 2 15 10 2 6 -10
10 -11 10 -2z m-92 -47 c6 -1 12 -8 12 -16 0 -12 -13 -15 -60 -15 -45 0 -60 3
-60 14 0 20 16 22 108 17z m109 -17 c0 -9 -11 -14 -34 -14 -35 0 -48 25 -15
32 27 6 49 -2 49 -18z m121 17 c6 -1 12 -8 12 -16 0 -24 -65 -20 -67 3 -1 13
5 18 20 16 12 -1 28 -3 35 -3z m150 0 c6 -1 12 -9 12 -18 0 -15 -2 -16 -10 -3
-6 10 -10 11 -10 3 0 -9 -17 -13 -50 -13 -35 0 -49 4 -47 13 4 21 18 23 105
18z m90 -14 c3 -13 -4 -17 -32 -17 -28 0 -36 4 -36 18 0 13 2 14 9 4 7 -11 9
-11 14 1 8 20 41 15 45 -6z m-591 -9 c-3 -8 -6 -5 -6 6 -1 11 2 17 5 13 3 -3
4 -12 1 -19z m150 0 c-3 -8 -6 -5 -6 6 -1 11 2 17 5 13 3 -3 4 -12 1 -19z
m107 7 c3 -8 1 -15 -4 -15 -6 0 -10 7 -10 15 0 8 2 15 4 15 2 0 6 -7 10 -15z
m26 0 c0 -8 -2 -15 -4 -15 -2 0 -6 7 -10 15 -3 8 -1 15 4 15 6 0 10 -7 10 -15z
m97 -7 c-3 -8 -6 -5 -6 6 -1 11 2 17 5 13 3 -3 4 -12 1 -19z m-439 -37 c6 -1
12 -9 12 -18 0 -15 -2 -16 -10 -3 -5 8 -10 10 -10 4 0 -7 -20 -14 -45 -16 -27
-2 -44 1 -42 7 5 15 46 33 66 30 9 -2 22 -4 29 -4z m130 0 c6 -1 12 -8 12 -16
0 -12 -13 -15 -60 -15 -51 0 -60 3 -60 18 0 13 2 14 9 4 7 -11 9 -11 13 0 5
12 18 13 86 9z m112 -13 c0 -14 -8 -18 -35 -18 -37 0 -51 25 -17 32 37 7 52 3
52 -14z m118 13 c6 -1 12 -8 12 -16 0 -24 -65 -20 -67 3 -1 13 5 18 20 16 12
-1 28 -3 35 -3z m150 0 c6 -1 12 -8 12 -16 0 -12 -14 -15 -62 -15 -45 0 -59 3
-48 10 13 9 13 10 0 11 -12 0 -11 2 2 7 15 6 34 7 96 3z m109 -13 c-2 -26 -87
-26 -87 0 0 14 2 15 10 2 6 -9 10 -10 10 -3 0 6 8 13 18 15 37 7 50 3 49 -14z
m-460 -10 c-3 -8 -6 -5 -6 6 -1 11 2 17 5 13 3 -3 4 -12 1 -19z m114 2 c6 0 7
5 4 10 -3 6 -1 10 4 10 6 0 11 -7 11 -15 0 -8 -9 -15 -20 -15 -13 0 -20 6 -19
18 0 10 3 12 6 5 2 -7 9 -13 14 -13z m116 -2 c-3 -8 -6 -5 -6 6 -1 11 2 17 5
13 3 -3 4 -12 1 -19z m258 12 c-3 -5 2 -10 12 -11 11 0 13 -3 5 -6 -18 -7 -44
5 -37 17 3 5 11 10 16 10 6 0 7 -4 4 -10z m-697 -49 c6 -1 12 -8 12 -16 0 -11
-12 -15 -45 -15 -25 0 -45 2 -45 4 0 13 32 34 47 31 10 -2 24 -4 31 -4z m130
0 c6 -1 12 -8 12 -16 0 -12 -13 -15 -60 -15 -51 0 -60 3 -60 18 0 13 2 14 9 4
7 -11 9 -11 14 0 3 9 17 14 39 12 18 -1 39 -3 46 -3z m112 -13 c0 -14 -8 -18
-35 -18 -27 0 -35 4 -35 18 0 13 8 17 35 17 27 0 35 -4 35 -17z m138 13 c6 -1
12 -9 12 -18 0 -15 -2 -16 -10 -3 -6 10 -10 11 -10 3 0 -9 -19 -13 -60 -13
-51 0 -60 3 -59 18 0 10 3 12 6 5 2 -7 9 -13 14 -13 6 0 7 5 4 10 -3 6 -1 10
4 10 6 0 11 -4 11 -10 0 -5 4 -10 10 -10 5 0 7 6 4 13 -4 12 10 13 74 8z m130
0 c6 -1 12 -8 12 -16 0 -12 -13 -15 -60 -15 -51 0 -60 3 -60 18 0 13 2 14 9 4
7 -11 9 -11 13 0 5 12 18 13 86 9z m109 -13 c-2 -26 -87 -26 -87 0 0 13 2 14
9 4 7 -11 9 -11 14 0 2 8 18 14 35 13 23 0 30 -4 29 -17z m131 -1 c3 -13 -4
-17 -30 -17 -25 0 -34 5 -35 18 -2 25 60 24 65 -1z m-591 -9 c-3 -8 -6 -5 -6
6 -1 11 2 17 5 13 3 -3 4 -12 1 -19z m487 7 c3 -8 1 -15 -4 -15 -6 0 -10 7
-10 15 0 8 2 15 4 15 2 0 6 -7 10 -15z m26 0 c0 -8 -2 -15 -4 -15 -2 0 -6 7
-10 15 -3 8 -1 15 4 15 6 0 10 -7 10 -15z m-710 -57 c0 -11 -7 -18 -18 -18
-10 0 -18 8 -19 18 -1 11 5 18 18 18 12 0 19 -7 19 -18z m121 1 c12 -20 2 -24
-18 -8 -11 9 -14 10 -9 2 5 -10 -5 -13 -38 -13 -37 0 -46 3 -46 18 0 13 2 14
9 4 7 -11 9 -11 14 1 7 18 76 15 88 -4z m109 0 c0 -15 -7 -19 -35 -19 -27 0
-35 4 -35 18 0 13 9 17 35 18 28 1 35 -2 35 -17z m138 12 c6 -1 12 -9 12 -18
0 -15 -2 -16 -10 -3 -6 10 -10 11 -10 3 0 -7 -5 -13 -11 -13 -5 0 -8 4 -5 8 3
5 -1 9 -9 9 -8 0 -12 -4 -9 -9 3 -4 -4 -8 -16 -8 -14 0 -19 4 -14 13 6 10 4
10 -7 0 -7 -7 -17 -13 -21 -13 -13 0 -4 24 10 30 12 5 40 5 90 1z m130 0 c6
-1 12 -8 12 -16 0 -12 -13 -15 -60 -15 -51 0 -60 3 -60 18 0 13 2 14 9 4 7
-11 9 -11 14 0 3 9 17 14 39 12 18 -1 39 -3 46 -3z m112 -13 c0 -15 -9 -18
-45 -18 -36 0 -45 3 -45 18 0 14 2 15 10 2 8 -13 10 -13 10 1 0 12 9 16 35 15
26 -1 35 -5 35 -18z m128 -1 c2 -9 -2 -17 -8 -17 -6 0 -9 4 -6 8 3 5 -1 9 -9
9 -8 0 -12 -4 -9 -9 3 -4 -3 -8 -13 -8 -11 0 -19 8 -20 18 -2 25 60 24 65 -1z
m82 3 c10 -18 8 -20 -20 -20 -33 0 -43 25 -12 33 9 3 18 5 19 6 1 0 7 -8 13
-19z m-670 -5 c0 -8 -2 -15 -4 -15 -2 0 -6 7 -10 15 -3 8 -1 15 4 15 6 0 10
-7 10 -15z m97 -7 c-3 -8 -6 -5 -6 6 -1 11 2 17 5 13 3 -3 4 -12 1 -19z m394
2 c6 0 7 5 4 10 -3 6 -1 10 4 10 6 0 11 -7 11 -15 0 -8 -9 -15 -20 -15 -13 0
-20 6 -19 18 0 10 3 12 6 5 2 -7 9 -13 14 -13z m116 -2 c-3 -8 -6 -5 -6 6 -1
11 2 17 5 13 3 -3 4 -12 1 -19z m-710 -50 c-1 -15 -11 -18 -49 -18 -39 0 -46
3 -41 16 5 13 7 13 14 2 7 -10 9 -9 9 3 0 12 9 16 34 15 26 -1 34 -5 33 -18z
m53 2 c0 -13 -7 -20 -20 -20 -13 0 -20 6 -19 18 0 10 3 12 6 5 5 -14 24 -18
22 -5 -2 12 1 22 6 22 3 0 5 -9 5 -20z m80 -1 c0 -22 -10 -24 -29 -6 -11 10
-13 10 -7 0 5 -9 1 -13 -11 -13 -11 0 -19 8 -20 18 -1 13 7 17 33 18 27 1 34
-2 34 -17z m17 -11 c-3 -7 -5 -2 -5 12 0 14 2 19 5 13 2 -7 2 -19 0 -25z m133
10 c0 -12 -8 -18 -21 -18 -13 0 -18 4 -13 13 6 10 4 10 -7 0 -7 -7 -28 -13
-46 -13 -21 0 -32 5 -30 13 3 17 19 22 72 22 36 0 45 -3 45 -17z m113 13 c5
-1 5 -5 2 -11 -3 -5 -1 -10 6 -10 7 0 9 -3 6 -6 -4 -4 -14 -1 -24 7 -11 9 -14
10 -9 2 5 -9 0 -13 -14 -13 -12 0 -19 4 -16 8 3 5 -1 9 -9 9 -8 0 -12 -4 -9
-9 3 -4 -4 -8 -15 -8 -13 0 -21 6 -21 18 0 13 2 14 9 4 7 -11 9 -11 14 0 4 13
23 15 80 9z m37 -13 c0 -18 -2 -20 -9 -8 -6 8 -7 18 -5 22 9 14 14 9 14 -14z
m80 1 c0 -15 -7 -19 -35 -19 -27 0 -35 4 -35 18 0 13 9 17 35 18 28 1 35 -2
35 -17z m130 2 c6 -11 9 -10 13 5 4 16 5 16 6 -3 1 -17 -5 -23 -20 -23 -11 0
-18 4 -15 8 3 5 -1 9 -9 9 -8 0 -12 -4 -9 -9 3 -4 -4 -8 -16 -8 -14 0 -19 4
-14 13 6 10 4 10 -7 0 -20 -19 -49 -16 -48 5 0 10 3 12 6 5 2 -7 9 -13 14 -13
6 0 8 4 4 9 -3 5 3 11 12 13 36 7 74 2 83 -11z m138 10 c6 -1 12 -8 12 -16 0
-19 -60 -21 -79 -2 -11 10 -13 10 -7 0 5 -9 0 -13 -13 -13 -13 0 -21 6 -21 18
0 13 2 14 9 4 7 -11 9 -11 14 0 3 9 17 14 39 12 18 -1 39 -3 46 -3z m42 -16
c5 3 11 1 15 -5 3 -5 -3 -10 -14 -10 -14 0 -21 6 -20 18 0 10 3 12 6 4 2 -6 9
-10 13 -7z m-870 -56 c0 -23 -6 -24 -26 -5 -18 19 -18 21 6 23 14 1 20 -4 20
-18z m31 -9 c6 0 8 4 4 9 -3 5 -1 12 5 16 5 3 10 -3 10 -14 0 -14 -6 -21 -20
-21 -14 0 -20 6 -19 23 1 16 2 18 6 5 2 -10 9 -18 14 -18z m97 7 c2 -9 -2 -17
-8 -17 -6 0 -9 4 -6 8 3 5 -1 9 -9 9 -8 0 -12 -4 -9 -9 3 -4 -3 -8 -13 -8 -11
0 -19 8 -20 18 -2 25 60 24 65 -1z m19 -9 c-3 -7 -5 -2 -5 12 0 14 2 19 5 13
2 -7 2 -19 0 -25z m121 23 c6 0 12 -8 12 -16 0 -12 -13 -15 -60 -15 -51 0 -60
3 -60 18 0 13 2 14 9 4 7 -11 9 -11 14 1 5 13 17 14 85 8z m41 -10 c1 12 10
16 35 15 26 -1 34 -5 33 -18 -1 -10 -9 -18 -20 -18 -10 0 -16 4 -13 8 3 5 -1
9 -9 9 -8 0 -12 -4 -9 -9 3 -4 -4 -8 -15 -8 -15 0 -21 6 -20 23 0 21 1 21 9 2
7 -15 9 -16 9 -4z m121 -1 c0 -13 -7 -20 -20 -20 -13 0 -20 6 -19 18 0 10 3
12 6 5 5 -14 24 -18 22 -5 -2 12 1 22 6 22 3 0 5 -9 5 -20z m80 -1 c0 -22 -10
-24 -29 -6 -11 10 -13 10 -7 0 5 -9 1 -13 -11 -13 -11 0 -19 8 -20 18 -1 13 7
17 33 18 27 1 34 -2 34 -17z m31 -9 c6 0 7 5 4 10 -7 11 -2 12 68 14 39 1 47
-2 47 -16 0 -12 -8 -18 -21 -18 -11 0 -18 4 -15 8 3 5 -1 9 -9 9 -8 0 -12 -4
-9 -9 3 -4 -15 -8 -40 -8 -41 0 -46 2 -45 23 1 16 2 18 6 5 2 -10 9 -18 14
-18z m237 21 c15 -1 16 -31 1 -31 -5 0 -8 4 -5 8 3 5 -1 9 -9 9 -8 0 -12 -4
-9 -9 3 -4 -4 -8 -16 -8 -12 0 -19 4 -16 8 3 5 -1 9 -9 9 -8 0 -12 -4 -9 -9 3
-4 -4 -8 -15 -8 -13 0 -21 6 -21 18 0 13 2 14 9 4 7 -11 9 -11 14 0 3 9 17 14
39 12 18 -1 39 -3 46 -3z m29 -23 c-3 -7 -5 -2 -5 12 0 14 2 19 5 13 2 -7 2
-19 0 -25z m83 10 c0 -12 -7 -18 -21 -18 -13 0 -18 4 -13 13 6 10 4 10 -7 0
-19 -18 -29 -16 -29 5 0 15 8 19 35 19 27 0 35 -4 35 -19z m-790 -63 c0 -17
-2 -17 -10 -5 -6 10 -10 11 -10 3 0 -7 -5 -13 -11 -13 -5 0 -7 6 -3 13 6 9 5
9 -8 0 -12 -11 -18 -10 -31 5 -15 16 -13 17 29 17 37 0 44 -3 44 -20z m130 3
c0 -14 -8 -18 -33 -18 -18 0 -39 6 -46 13 -11 10 -13 10 -7 0 5 -9 0 -13 -13
-13 -13 0 -21 6 -21 18 0 13 2 14 9 4 7 -11 9 -11 14 0 3 10 20 14 51 14 37
-1 46 -4 46 -18z m17 -10 c-3 -7 -5 -2 -5 12 0 14 2 19 5 13 2 -7 2 -19 0 -25z
m38 12 c0 -7 -6 -15 -12 -17 -8 -3 -13 4 -13 17 0 13 5 20 13 18 6 -3 12 -11
12 -18z m45 -1 c0 -12 -7 -19 -18 -19 -10 0 -18 7 -18 18 0 10 8 19 18 19 12
1 18 -5 18 -18z m50 1 c0 -13 -7 -20 -20 -20 -13 0 -20 6 -19 18 0 10 3 12 6
5 5 -14 24 -18 22 -5 -2 12 1 22 6 22 3 0 5 -9 5 -20z m80 0 c0 -24 -65 -27
-67 -2 -1 13 7 17 33 18 26 1 34 -3 34 -16z m17 -12 c-3 -7 -5 -2 -5 12 0 14
2 19 5 13 2 -7 2 -19 0 -25z m133 10 c0 -15 -10 -18 -60 -18 -57 0 -59 1 -44
18 21 26 104 25 104 0z m29 4 c1 13 9 16 42 13 23 -2 45 -9 50 -16 12 -20 2
-24 -18 -8 -11 9 -14 10 -9 2 5 -9 0 -13 -14 -13 -12 0 -19 4 -16 8 3 5 -1 9
-9 9 -8 0 -12 -4 -9 -9 3 -4 -4 -8 -15 -8 -15 0 -21 6 -20 23 0 21 1 21 9 2 7
-16 9 -17 9 -3z m121 -4 c0 -18 -2 -20 -9 -8 -6 8 -7 18 -5 22 9 14 14 9 14
-14z m37 6 c5 -15 7 -15 15 0 12 22 28 20 28 -4 0 -16 -7 -20 -35 -20 -28 0
-35 4 -35 20 0 24 18 27 27 4z m74 -14 c6 0 7 5 4 10 -7 11 -4 11 68 15 40 1
47 -1 47 -17 0 -12 -7 -18 -21 -18 -11 0 -18 4 -15 8 3 5 -1 9 -9 9 -8 0 -12
-4 -9 -9 3 -4 -15 -8 -40 -8 -41 0 -46 2 -45 23 1 16 2 18 6 5 2 -10 9 -18 14
-18z m149 16 c0 -8 -4 -18 -10 -21 -5 -3 -10 3 -10 14 0 12 5 21 10 21 6 0 10
-6 10 -14z m-901 -57 c-18 -11 -39 -11 -39 0 0 5 12 9 26 9 18 0 22 -3 13 -9z
m311 -11 c0 -12 -7 -18 -21 -18 -11 0 -18 4 -15 8 3 5 -1 9 -9 9 -8 0 -12 -4
-9 -9 3 -4 0 -8 -5 -8 -6 0 -11 4 -11 8 0 5 -12 13 -27 18 -24 9 -19 11 35 10
53 0 62 -3 62 -18z m130 0 c0 -14 -8 -18 -35 -18 -21 0 -38 6 -45 18 -11 16
-11 16 -6 0 4 -13 0 -18 -14 -18 -18 0 -19 1 -4 18 21 26 104 25 104 0z m29 5
c1 22 26 17 26 -4 0 -8 -10 -15 -22 -17 -18 -3 -23 1 -22 20 0 22 1 22 9 3 8
-18 9 -18 9 -2z m91 0 c0 -7 5 -13 11 -13 5 0 8 4 4 9 -3 5 -1 12 5 16 5 3 10
-3 10 -14 0 -14 -6 -21 -20 -21 -11 0 -20 5 -20 10 0 6 -5 10 -11 10 -5 0 -7
-4 -4 -10 3 -5 -2 -10 -12 -10 -11 0 -19 7 -19 18 0 13 8 18 28 18 17 0 28 -5
28 -13z m76 -5 c0 -24 -31 -23 -33 1 -1 13 4 19 16 18 9 0 17 -9 17 -19z m34
2 c0 -21 -15 -27 -25 -10 -7 12 2 30 16 30 5 0 9 -9 9 -20z m17 -12 c-3 -7 -5
-2 -5 12 0 14 2 19 5 13 2 -7 2 -19 0 -25z m133 10 c0 -11 -8 -18 -20 -18 -14
0 -18 5 -14 18 5 16 5 16 -6 0 -6 -10 -20 -18 -30 -18 -14 0 -18 5 -14 18 5
16 5 16 -6 0 -13 -21 -31 -24 -27 -5 3 17 23 23 74 23 34 -1 43 -5 43 -18z
m29 5 c1 9 6 17 11 17 7 0 7 -6 0 -20 -14 -27 -30 -25 -29 3 0 21 1 21 9 2 7
-17 9 -17 9 -2z m-589 -63 c0 -11 -4 -20 -9 -20 -5 0 -7 9 -4 20 3 11 7 20 9
20 2 0 4 -9 4 -20z m29 2 c1 13 9 16 39 13 20 -2 43 -3 50 -4 6 -1 12 -7 12
-14 0 -10 -17 -14 -60 -15 -55 0 -60 1 -59 21 0 21 1 21 9 2 7 -16 9 -17 9 -3z
m118 -14 c-3 -7 -5 -2 -5 12 0 14 2 19 5 13 2 -7 2 -19 0 -25z m38 12 c0 -7
-6 -15 -12 -17 -8 -3 -13 4 -13 17 0 13 5 20 13 18 6 -3 12 -11 12 -18z m45
-1 c0 -12 -7 -19 -18 -19 -10 0 -18 7 -18 18 0 10 8 19 18 19 12 1 18 -5 18
-18z m31 -9 c6 0 8 4 4 9 -3 5 -1 12 5 16 5 3 10 -3 10 -14 0 -14 -6 -21 -20
-21 -14 0 -20 6 -19 23 1 16 2 18 6 5 2 -10 9 -18 14 -18z m99 10 c0 -24 -65
-27 -67 -2 -1 13 7 17 33 18 26 1 34 -3 34 -16z m17 -12 c-3 -7 -5 -2 -5 12 0
14 2 19 5 13 2 -7 2 -19 0 -25z m133 10 c0 -11 -8 -18 -20 -18 -14 0 -18 5
-13 18 5 14 3 13 -11 -3 -16 -20 -16 -20 -32 0 -14 16 -16 17 -11 3 5 -13 1
-18 -13 -18 -12 0 -20 7 -20 18 0 13 2 14 9 4 7 -11 9 -11 14 0 3 10 20 14 51
14 37 -1 46 -4 46 -18z m17 -10 c-3 -7 -5 -2 -5 12 0 14 2 19 5 13 2 -7 2 -19
0 -25z m33 28 c0 -3 -4 -8 -10 -11 -5 -3 -10 -1 -10 4 0 6 5 11 10 11 6 0 10
-2 10 -4z m-890 -41 c0 -24 -3 -25 -60 -25 l-60 0 0 -37 0 -38 60 3 c59 4 60
3 60 -22 0 -25 -2 -26 -60 -26 l-60 0 0 -40 0 -40 60 0 c57 0 60 -1 60 -25 0
-25 -1 -25 -90 -25 l-90 0 0 150 0 150 90 0 c89 0 90 0 90 -25z m268 -13 c3
-31 2 -33 -17 -23 -11 6 -35 11 -55 11 -48 0 -76 -37 -76 -100 0 -63 28 -100
76 -100 20 0 44 5 55 10 17 9 19 7 19 -18 0 -34 -17 -42 -92 -42 -89 0 -141
81 -118 187 19 85 58 115 145 111 60 -3 60 -3 63 -36z m138 -15 c4 -4 1 -7 -7
-7 -11 0 -11 -2 -1 -9 9 -5 2 -8 -20 -9 -31 -1 -58 12 -58 28 0 9 76 7 86 -3z
m21 -19 c-3 -7 -5 -2 -5 12 0 14 2 19 5 13 2 -7 2 -19 0 -25z m83 12 c0 -12
-9 -17 -35 -17 -26 0 -35 5 -35 17 0 12 9 17 35 17 26 0 35 -5 35 -17z m31
-10 c5 0 8 5 7 12 -2 8 16 12 55 13 52 2 57 0 57 -19 0 -17 -2 -18 -10 -6 -5
8 -10 10 -10 4 0 -6 -16 -11 -35 -12 -28 -1 -33 2 -29 16 5 16 5 16 -6 0 -17
-27 -50 -23 -49 5 1 16 2 18 6 5 2 -10 9 -18 14 -18z m150 11 c13 21 99 20 99
-2 0 -23 -66 -24 -80 -1 -11 16 -11 16 -6 0 4 -13 0 -18 -14 -18 -14 0 -20 6
-19 23 1 19 2 19 6 3 4 -15 7 -16 14 -5z m116 -13 c-3 -7 -5 -2 -5 12 0 14 2
19 5 13 2 -7 2 -19 0 -25z m-427 -50 c0 -18 -2 -20 -9 -8 -6 8 -7 18 -5 22 9
14 14 9 14 -14z m40 2 c9 -17 8 -20 -10 -20 -13 0 -20 7 -20 20 0 11 4 20 10
20 5 0 14 -9 20 -20z m40 -1 c0 -24 -16 -25 -29 -1 -8 14 -6 18 10 19 13 1 19
-5 19 -18z m31 -9 c5 0 8 5 7 11 -2 6 5 13 14 14 15 3 16 0 8 -16 -15 -28 -50
-25 -49 4 1 16 2 18 6 5 2 -10 9 -18 14 -18z m74 9 c0 -8 -10 -15 -23 -17 -21
-3 -22 -1 -12 18 12 23 35 22 35 -1z m45 -1 c0 -11 -7 -18 -18 -18 -11 0 -18
7 -18 19 0 13 7 19 18 18 10 -1 18 -9 18 -19z m29 3 c1 24 101 22 101 -1 0
-14 -11 -17 -60 -18 -55 0 -60 1 -59 21 0 21 1 21 9 2 6 -15 9 -16 9 -4z m118
-13 c-3 -7 -5 -2 -5 12 0 14 2 19 5 13 2 -7 2 -19 0 -25z m33 12 c0 -11 -4
-20 -10 -20 -5 0 -10 9 -10 20 0 11 5 20 10 20 6 0 10 -9 10 -20z m-380 -60
c0 -21 -15 -27 -25 -10 -7 12 2 30 16 30 5 0 9 -9 9 -20z m17 -12 c-3 -7 -5
-2 -5 12 0 14 2 19 5 13 2 -7 2 -19 0 -25z m133 10 c0 -11 -8 -18 -20 -18 -14
0 -18 5 -14 18 5 14 4 15 -5 2 -5 -8 -26 -15 -44 -16 -32 -1 -33 0 -20 15 21
25 103 23 103 -1z m29 3 c1 11 11 16 34 17 26 1 33 -3 33 -18 0 -15 -8 -18
-43 -18 -38 0 -43 2 -42 21 0 21 1 21 9 2 6 -15 9 -16 9 -4z m95 -20 c-9 -10
-26 18 -18 30 5 9 9 8 14 -7 4 -10 6 -21 4 -23z m26 17 c0 -18 -2 -20 -9 -8
-6 8 -7 18 -5 22 9 14 14 9 14 -14z m80 2 c0 -12 -9 -17 -35 -17 -26 0 -35 5
-35 17 0 12 9 17 35 17 26 0 35 -5 35 -17z m-410 -60 c0 -11 -7 -20 -15 -20
-18 0 -19 12 -3 28 16 16 18 15 18 -8z m29 3 c1 24 17 22 17 -3 0 -13 -7 -20
-18 -20 -12 0 -18 7 -17 23 0 21 1 21 9 2 7 -17 9 -17 9 -2z m101 -4 c0 -12
-9 -16 -34 -15 -19 0 -37 4 -41 8 -14 14 5 25 40 24 25 -1 35 -6 35 -17z m29
4 c1 22 26 17 26 -4 0 -8 -10 -15 -22 -17 -18 -3 -23 1 -22 20 0 22 1 22 9 3
8 -18 9 -18 9 -2z m91 0 c0 -7 5 -13 11 -13 5 0 8 4 4 9 -3 5 -1 12 5 16 5 3
10 -3 10 -14 0 -26 -27 -28 -47 -3 -14 16 -14 16 -9 0 4 -13 0 -18 -12 -18
-11 0 -18 8 -18 20 0 16 6 20 28 18 15 -1 28 -8 28 -15z m70 -3 c9 -17 8 -20
-10 -20 -13 0 -20 7 -20 20 0 11 4 20 10 20 5 0 14 -9 20 -20z m40 -1 c0 -24
-16 -25 -29 -1 -8 14 -6 18 10 19 13 1 19 -5 19 -18z m17 -11 c-3 -7 -5 -2 -5
12 0 14 2 19 5 13 2 -7 2 -19 0 -25z m63 20 c0 -5 -5 -6 -12 -2 -8 5 -9 2 -5
-9 4 -12 1 -17 -11 -17 -10 0 -18 8 -19 19 -1 13 5 19 23 19 13 0 24 -5 24
-10z m-431 -60 c11 -10 13 -10 7 0 -5 8 -1 12 11 12 12 0 19 -7 19 -20 0 -15
-7 -19 -33 -18 -25 1 -33 6 -33 20 0 21 10 23 29 6z m71 -8 c0 -11 -4 -20 -9
-20 -14 0 -23 18 -16 30 10 17 25 11 25 -10z m29 1 c1 23 71 22 71 -1 0 -12
-11 -16 -45 -17 -40 -2 -45 1 -44 20 0 21 1 21 9 2 6 -15 9 -16 9 -4z m102
-11 c6 0 8 4 4 9 -3 5 -1 12 5 16 5 3 10 -3 10 -14 0 -14 -6 -21 -20 -21 -14
0 -20 6 -19 23 1 16 2 18 6 5 2 -10 9 -18 14 -18z m65 10 c0 -12 -7 -20 -16
-20 -9 0 -16 8 -16 20 0 12 7 20 16 20 9 0 16 -8 16 -20z m34 0 c0 -11 -4 -20
-9 -20 -14 0 -23 18 -16 30 10 17 25 11 25 -10z m17 -12 c-3 -7 -5 -2 -5 12 0
14 2 19 5 13 2 -7 2 -19 0 -25z m68 22 c-3 -6 -10 -8 -15 -5 -4 3 -10 -2 -14
-10 -8 -21 -26 -19 -26 3 0 13 9 18 31 20 19 2 28 -1 24 -8z m-365 -70 c0 -11
-4 -20 -9 -20 -5 0 -11 9 -14 20 -3 13 0 20 9 20 8 0 14 -9 14 -20z m17 -12
c-3 -7 -5 -2 -5 12 0 14 2 19 5 13 2 -7 2 -19 0 -25z m83 12 c0 -12 -9 -17
-35 -17 -26 0 -35 5 -35 17 0 12 9 17 35 17 26 0 35 -5 35 -17z m30 -10 c5 0
7 7 4 15 -8 21 13 19 26 -2 11 -17 11 -17 6 -1 -4 14 1 17 29 16 25 -1 35 -6
35 -18 0 -13 -12 -16 -60 -17 -55 -1 -60 1 -59 21 1 16 2 17 6 4 2 -10 8 -18
13 -18z m117 -2 c-3 -7 -5 -2 -5 12 0 14 2 19 5 13 2 -7 2 -19 0 -25z m32 15
c1 10 7 17 14 15 20 -7 13 -31 -10 -34 -18 -3 -23 1 -22 19 0 21 1 21 9 2 8
-18 9 -18 9 -2z m-263 -63 c0 -24 -20 -21 -24 3 -2 9 3 17 10 17 8 0 14 -9 14
-20z m34 0 c0 -11 -4 -20 -9 -20 -14 0 -23 18 -16 30 10 17 25 11 25 -10z m30
-10 c5 0 7 7 4 15 -8 21 13 19 26 -2 11 -16 11 -17 6 -1 -4 15 1 17 39 15 34
-1 45 -6 45 -18 0 -14 -12 -16 -70 -16 -65 0 -70 2 -69 21 1 17 2 18 6 4 2
-10 8 -18 13 -18z m149 13 c1 24 17 22 17 -3 0 -13 -7 -20 -18 -20 -12 0 -18
7 -17 23 0 21 1 21 9 2 7 -17 9 -17 9 -2z m-179 -55 c0 6 4 12 10 12 5 0 7 -8
3 -17 -5 -15 -3 -14 11 2 16 20 16 20 32 0 13 -15 15 -16 11 -3 -4 12 -1 16
14 15 10 -1 19 -8 19 -17 0 -13 -12 -16 -60 -16 -54 0 -60 2 -60 20 0 17 2 18
10 6 6 -10 10 -11 10 -2z m129 -5 c1 9 6 17 12 17 5 0 8 -4 5 -8 -3 -5 1 -9 9
-9 8 0 12 4 9 9 -3 4 7 8 21 8 25 0 25 -1 8 -18 -10 -10 -33 -19 -50 -20 -28
-2 -33 1 -32 20 0 22 1 22 9 3 7 -17 9 -17 9 -2z m-79 -63 c0 -15 -5 -19 -22
-16 -13 3 -26 5 -29 5 -4 1 -9 8 -13 16 -4 12 3 15 29 15 28 0 35 -4 35 -20z
m29 1 c1 11 12 16 39 17 26 1 33 -1 22 -8 -8 -5 -17 -7 -21 -4 -4 2 -9 -3 -13
-11 -3 -8 -15 -15 -26 -15 -14 0 -20 6 -19 23 0 21 1 21 9 2 6 -15 9 -16 9 -4z"/>
<path d="M532 958 c-21 -29 -53 -78 -72 -108 -19 -30 -38 -56 -42 -58 -5 -2
-8 -8 -8 -13 0 -6 -18 -34 -40 -64 -22 -30 -40 -57 -40 -61 0 -4 -11 -22 -25
-40 -18 -23 -25 -45 -25 -77 0 -66 12 -72 151 -72 l119 1 1 -48 c2 -59 2 -58
18 -84 12 -17 21 -20 55 -16 59 6 75 24 78 90 3 52 4 55 31 58 41 4 57 22 57
64 0 43 -24 70 -63 70 l-27 0 0 188 c0 218 -2 222 -83 222 -44 0 -48 -2 -85
-52z m138 -183 l0 -205 45 0 45 0 0 -40 0 -40 -45 0 -45 0 0 -75 0 -75 -45 0
-45 0 0 75 0 75 -141 0 -141 0 7 46 c4 36 32 85 138 244 l132 199 48 1 47 0 0
-205z"/>
<path d="M490 710 c-44 -66 -80 -124 -80 -130 0 -6 33 -10 85 -10 l85 0 0 130
c0 72 -2 130 -5 130 -2 0 -41 -54 -85 -120z m60 -40 l0 -70 -39 0 c-22 0 -42
4 -45 9 -5 8 70 131 80 131 2 0 4 -31 4 -70z"/>
<path d="M774 699 c-29 -32 -11 -77 33 -83 15 -2 18 -12 17 -49 -2 -94 -3 -96
-34 -112 -32 -16 -40 -51 -18 -73 16 -16 200 -16 216 0 25 25 2 85 -33 87 -5
1 -11 36 -13 78 -2 43 0 74 4 70 4 -4 18 0 31 8 21 14 26 14 45 0 13 -8 30
-15 40 -15 16 0 18 -11 18 -109 0 -102 2 -111 22 -125 30 -21 51 -20 73 4 14
16 19 41 22 122 2 56 4 102 6 103 1 1 14 5 29 9 23 5 27 2 33 -24 6 -29 57
-90 75 -90 5 0 21 -5 36 -10 40 -16 17 -30 -33 -21 -53 10 -83 -7 -83 -47 0
-69 155 -86 225 -26 21 18 29 35 33 72 4 46 2 51 -33 85 -21 20 -42 34 -46 31
-5 -3 -9 0 -9 5 0 6 -9 11 -20 11 -11 0 -20 4 -20 9 0 4 18 6 40 4 49 -6 70 9
70 49 0 62 -125 77 -195 24 -25 -19 -35 -23 -35 -13 0 33 -30 42 -132 39 -54
-1 -108 -7 -119 -13 -15 -8 -24 -7 -36 3 -24 20 -190 18 -209 -3z m206 -34 c0
-22 -4 -25 -35 -25 l-35 0 0 -100 0 -100 35 0 c31 0 35 -3 35 -25 0 -25 0 -25
-95 -25 -95 0 -95 0 -95 25 0 21 5 25 30 25 l30 0 0 100 0 100 -30 0 c-25 0
-30 4 -30 25 0 25 0 25 95 25 95 0 95 0 95 -25z m270 0 c0 -23 -4 -25 -42 -25
l-43 0 3 -125 3 -125 -30 0 -31 0 0 125 0 125 -40 0 c-36 0 -40 3 -40 25 l0
25 110 0 110 0 0 -25z m228 -5 c3 -25 1 -25 -60 -25 -55 0 -63 -2 -63 -19 0
-20 6 -25 76 -56 73 -33 89 -91 39 -141 -28 -29 -33 -30 -106 -27 -76 3 -77 3
-78 30 l-2 26 66 -5 c53 -4 68 -2 79 11 12 14 11 19 -4 36 -9 10 -30 22 -46
25 -48 11 -89 52 -89 89 0 61 39 87 125 83 56 -2 60 -4 63 -27z"/>
<path d="M2659 462 c-19 -18 -42 -38 -51 -45 -10 -6 -19 -21 -21 -32 -2 -11
-9 -31 -14 -45 -6 -15 -7 -30 -2 -36 5 -6 6 -13 3 -17 -13 -13 8 -47 30 -47
26 0 54 26 41 38 -4 4 -10 1 -12 -6 -3 -6 -9 -10 -14 -6 -15 9 -10 24 9 24 24
1 55 27 47 40 -4 6 0 17 8 23 9 7 18 26 20 42 3 17 8 37 11 45 4 9 0 24 -7 34
-14 18 -16 18 -48 -12z m41 -10 c0 -11 -8 -18 -20 -19 -25 -2 -26 12 -2 26 22
14 22 14 22 -7z m-65 -63 c0 -8 -11 -15 -25 -16 -14 -1 -19 0 -12 3 6 3 12 12
12 21 0 8 6 13 13 11 6 -3 12 -11 12 -19z m50 1 c0 -8 -9 -16 -20 -18 -15 -2
-21 3 -21 18 0 15 6 20 21 18 11 -2 20 -10 20 -18z m-55 -60 c0 -14 -6 -19
-20 -17 -11 2 -23 7 -27 12 -5 4 -2 4 6 0 11 -6 13 -4 8 8 -5 12 -1 17 13 17
13 0 20 -7 20 -20z m23 0 c3 -11 1 -20 -4 -20 -5 0 -9 9 -9 20 0 11 2 20 4 20
2 0 6 -9 9 -20z m-50 -60 c3 -11 1 -20 -4 -20 -5 0 -9 9 -9 20 0 11 2 20 4 20
2 0 6 -9 9 -20z"/>
</g>
</svg>
